G04*
G04 #@! TF.GenerationSoftware,Altium Limited,Altium Designer,24.6.1 (21)*
G04*
G04 Layer_Color=65535*
%FSLAX25Y25*%
%MOIN*%
G70*
G04*
G04 #@! TF.SameCoordinates,E89A06A7-0658-4A87-8E90-D679E4E66743*
G04*
G04*
G04 #@! TF.FilePolarity,Positive*
G04*
G01*
G75*
%ADD10C,0.00984*%
%ADD11C,0.00394*%
%ADD12C,0.00591*%
%ADD13C,0.00787*%
%ADD14C,0.00472*%
%ADD15R,0.00787X0.00591*%
G36*
X42218Y15234D02*
X42895D01*
Y14560D01*
Y13869D01*
Y13181D01*
Y12493D01*
Y11801D01*
Y11113D01*
Y10429D01*
Y9755D01*
Y9075D01*
X40154D01*
Y9755D01*
X39463D01*
Y9075D01*
X33981D01*
Y9755D01*
X33966D01*
Y9075D01*
X31225D01*
Y9755D01*
X30534D01*
Y9075D01*
X27793D01*
Y9755D01*
X27105D01*
Y10429D01*
Y11113D01*
Y11801D01*
Y12493D01*
Y13181D01*
Y13869D01*
Y14560D01*
Y15234D01*
Y15925D01*
X29846D01*
Y15234D01*
X30534D01*
Y15925D01*
X33289D01*
Y15234D01*
X33293D01*
Y15925D01*
X38775D01*
Y15234D01*
X39463D01*
Y15925D01*
X42218D01*
Y15234D01*
D02*
G37*
%LPC*%
G36*
X41534D02*
X40154D01*
Y14560D01*
X39463D01*
Y13869D01*
X38775D01*
Y14560D01*
X38101D01*
Y15234D01*
X36722D01*
Y14560D01*
Y13869D01*
Y13181D01*
Y12493D01*
Y11801D01*
Y11113D01*
Y10429D01*
X38101D01*
Y11113D01*
Y11801D01*
Y12493D01*
Y13181D01*
X38775D01*
Y12493D01*
X39463D01*
Y13181D01*
X40154D01*
Y12493D01*
Y11801D01*
Y11113D01*
Y10429D01*
X41534D01*
Y11113D01*
Y11801D01*
Y12493D01*
Y13181D01*
Y13869D01*
Y14560D01*
Y15234D01*
D02*
G37*
G36*
X32605D02*
X31225D01*
Y14560D01*
Y13869D01*
Y13181D01*
Y12493D01*
X30534D01*
Y13181D01*
X29846D01*
Y12493D01*
X29172D01*
Y13181D01*
Y13869D01*
Y14560D01*
Y15234D01*
X27793D01*
Y14560D01*
Y13869D01*
Y13181D01*
Y12493D01*
Y11801D01*
Y11113D01*
Y10429D01*
X29172D01*
Y11113D01*
X29846D01*
Y11801D01*
X30534D01*
Y11113D01*
X31225D01*
Y10429D01*
X32605D01*
Y11113D01*
Y11801D01*
Y12493D01*
Y13181D01*
Y13869D01*
Y14560D01*
Y15234D01*
D02*
G37*
G36*
X35360D02*
X33981D01*
Y14560D01*
Y13869D01*
Y13181D01*
Y12493D01*
Y11801D01*
Y11113D01*
Y10429D01*
X35360D01*
Y11113D01*
Y11801D01*
Y12493D01*
Y13181D01*
Y13869D01*
Y14560D01*
Y15234D01*
D02*
G37*
%LPD*%
D10*
X26476Y79528D02*
G03*
X26476Y79528I-492J0D01*
G01*
X51476Y37598D02*
G03*
X51476Y37598I-492J0D01*
G01*
D11*
X59449Y45866D02*
G03*
X59449Y45866I-197J0D01*
G01*
X13222Y32162D02*
G03*
X13222Y32162I-197J0D01*
G01*
X17402Y14793D02*
X17402Y7313D01*
X17402Y-6860D02*
X17402Y-522D01*
X52598Y-6860D02*
Y-522D01*
X52598Y14793D02*
X52598Y7313D01*
X17402Y-6860D02*
X52598D01*
X20866Y74213D02*
X22047Y74213D01*
X20866Y74213D02*
Y75394D01*
X58768Y79150D02*
Y80331D01*
X42232Y79150D02*
Y80331D01*
X54437D02*
Y84268D01*
X46563D02*
X54437D01*
X46563Y80331D02*
Y84268D01*
X42232Y80331D02*
X58768D01*
X46957Y71276D02*
X54043D01*
X15870Y7661D02*
Y9728D01*
X12130Y7661D02*
X15870D01*
X12130D02*
Y9728D01*
X65000Y-0D02*
G03*
X70000Y5000I0J5000D01*
G01*
X70000Y75000D02*
G03*
X65000Y80000I-5000J0D01*
G01*
X5000Y80000D02*
G03*
X0Y75000I0J-5000D01*
G01*
X-0Y5000D02*
G03*
X5000Y0I5000J0D01*
G01*
X0Y5000D02*
Y75000D01*
X5000Y80000D02*
X65000D01*
X70000Y5000D02*
Y75000D01*
X5000Y0D02*
X65000D01*
D12*
X15157Y73819D02*
Y74213D01*
X19291Y77953D02*
X20866D01*
X25000Y73819D02*
Y74213D01*
X19291Y70079D02*
X20866D01*
X50886Y32087D02*
Y44291D01*
X59350Y32087D02*
Y44291D01*
X42520Y31102D02*
Y31890D01*
X40157Y31102D02*
Y31890D01*
X54626Y64567D02*
X54823D01*
X52756Y62500D02*
Y62697D01*
X54626Y60630D02*
X54823D01*
X56693Y62500D02*
Y62697D01*
X24803Y34646D02*
X27165D01*
X24803Y28346D02*
X27165D01*
X15846Y31988D02*
X16437D01*
X15846Y27854D02*
X16437D01*
X14075Y29724D02*
X14075Y30118D01*
X18209D02*
X18209Y29724D01*
X38976Y31102D02*
Y31890D01*
X36614Y31102D02*
Y31890D01*
X13386Y54331D02*
X14173D01*
X13386Y51968D02*
X14173D01*
X54724Y26476D02*
X55512D01*
X54724Y24114D02*
X55512D01*
X16142Y24606D02*
X16929D01*
X16142Y26969D02*
X16929D01*
X12402Y29134D02*
X12402Y28346D01*
X10039Y28346D02*
Y29134D01*
X63606Y5181D02*
X64394D01*
X63606Y2819D02*
X64394D01*
X58181Y11425D02*
Y12213D01*
X55819Y11425D02*
Y12213D01*
X50106Y70079D02*
X50894D01*
X50106Y67716D02*
X50894D01*
X28740Y74410D02*
Y75197D01*
X26378Y74410D02*
Y75197D01*
X11417Y73622D02*
Y74410D01*
X13780Y73622D02*
Y74410D01*
X13386Y68898D02*
X14173D01*
X13386Y66535D02*
X14173D01*
X54724Y27657D02*
X55512D01*
X54724Y30020D02*
X55512D01*
X53543Y50000D02*
X54331D01*
X53543Y47638D02*
X54331D01*
X29921Y68110D02*
X30709D01*
X29921Y70472D02*
X30709D01*
X13386Y42520D02*
X14173D01*
X13386Y44882D02*
X14173D01*
X13386Y55118D02*
X14173D01*
X13386Y57480D02*
X14173D01*
X53543Y58268D02*
X54331D01*
X53543Y55905D02*
X54331D01*
X49213Y31102D02*
Y31890D01*
X46850Y31102D02*
Y31890D01*
X13386Y62205D02*
X14173D01*
X13386Y64567D02*
X14173D01*
X37008Y68110D02*
X37795D01*
X37008Y70472D02*
X37795D01*
X13386Y36220D02*
X14173D01*
X13386Y38583D02*
X14173D01*
X13386Y33071D02*
X14173D01*
X13386Y35433D02*
X14173D01*
X35433Y31102D02*
Y31890D01*
X33071Y31102D02*
Y31890D01*
X13386Y45669D02*
X14173D01*
X13386Y48031D02*
X14173D01*
X13386Y41732D02*
X14173D01*
X13386Y39370D02*
X14173D01*
X13386Y51181D02*
X14173D01*
X13386Y48819D02*
X14173D01*
X45669Y31102D02*
Y31890D01*
X43307Y31102D02*
Y31890D01*
D13*
X46850Y66142D02*
X48425D01*
Y64567D02*
Y66142D01*
X19291D02*
X20866D01*
X19291Y64567D02*
Y66142D01*
Y37008D02*
Y38583D01*
Y37008D02*
X20866D01*
X46850D02*
X48425D01*
Y38583D01*
D14*
X38386Y71424D02*
X41141D01*
Y72802D01*
X40682Y73261D01*
X40223D01*
X39764Y72802D01*
Y71424D01*
Y72802D01*
X39305Y73261D01*
X38845D01*
X38386Y72802D01*
Y71424D01*
X64035Y23622D02*
Y25459D01*
X64954Y26377D01*
X65872Y25459D01*
Y23622D01*
Y25000D01*
X64035D01*
X66790Y23622D02*
X67709D01*
X67250D01*
Y26377D01*
X66790Y25918D01*
X62199Y55918D02*
X61739Y56378D01*
X60821D01*
X60362Y55918D01*
Y55459D01*
X60821Y55000D01*
X61739D01*
X62199Y54541D01*
Y54082D01*
X61739Y53623D01*
X60821D01*
X60362Y54082D01*
X63117Y56378D02*
Y53623D01*
X64495D01*
X64954Y54082D01*
Y55918D01*
X64495Y56378D01*
X63117D01*
X65872Y53623D02*
Y55459D01*
X66790Y56378D01*
X67709Y55459D01*
Y53623D01*
Y55000D01*
X65872D01*
X63117Y33623D02*
Y35459D01*
X64035Y36378D01*
X64954Y35459D01*
Y33623D01*
Y35000D01*
X63117D01*
X67709Y33623D02*
X65872D01*
X67709Y35459D01*
Y35918D01*
X67250Y36378D01*
X66331D01*
X65872Y35918D01*
X63117Y76377D02*
X64954D01*
X64035D01*
Y73623D01*
X65872Y75459D02*
X67709Y73623D01*
X66790Y74541D01*
X67709Y75459D01*
X65872Y73623D01*
X62199Y65918D02*
X61739Y66378D01*
X60821D01*
X60362Y65918D01*
Y65459D01*
X60821Y65000D01*
X61739D01*
X62199Y64541D01*
Y64082D01*
X61739Y63622D01*
X60821D01*
X60362Y64082D01*
X64954Y65918D02*
X64495Y66378D01*
X63576D01*
X63117Y65918D01*
Y64082D01*
X63576Y63622D01*
X64495D01*
X64954Y64082D01*
X65872Y66378D02*
Y63622D01*
X67709D01*
X2291Y53623D02*
Y56378D01*
X3210Y55459D01*
X4128Y56378D01*
Y53623D01*
X5046Y56378D02*
X5965D01*
X5505D01*
Y53623D01*
X5046D01*
X5965D01*
X4128Y65918D02*
X3669Y66378D01*
X2750D01*
X2291Y65918D01*
Y65459D01*
X2750Y65000D01*
X3669D01*
X4128Y64541D01*
Y64082D01*
X3669Y63622D01*
X2750D01*
X2291Y64082D01*
X6883Y65918D02*
X6424Y66378D01*
X5505D01*
X5046Y65918D01*
Y64082D01*
X5505Y63622D01*
X6424D01*
X6883Y64082D01*
X7801Y66378D02*
Y63622D01*
Y64541D01*
X9638Y66378D01*
X8261Y65000D01*
X9638Y63622D01*
X4128Y25918D02*
X3669Y26377D01*
X2750D01*
X2291Y25918D01*
Y24082D01*
X2750Y23622D01*
X3669D01*
X4128Y24082D01*
Y25000D01*
X3210D01*
X5046Y23622D02*
Y26377D01*
X6883Y23622D01*
Y26377D01*
X7801D02*
Y23622D01*
X9179D01*
X9638Y24082D01*
Y25918D01*
X9179Y26377D01*
X7801D01*
X2291Y35918D02*
X2750Y36378D01*
X3669D01*
X4128Y35918D01*
Y35459D01*
X3669Y35000D01*
X3210D01*
X3669D01*
X4128Y34541D01*
Y34082D01*
X3669Y33623D01*
X2750D01*
X2291Y34082D01*
X5046Y36378D02*
Y34541D01*
X5965Y33623D01*
X6883Y34541D01*
Y36378D01*
X7801Y35918D02*
X8261Y36378D01*
X9179D01*
X9638Y35918D01*
Y35459D01*
X9179Y35000D01*
X8720D01*
X9179D01*
X9638Y34541D01*
Y34082D01*
X9179Y33623D01*
X8261D01*
X7801Y34082D01*
X2291Y43622D02*
Y46378D01*
X3210Y45459D01*
X4128Y46378D01*
Y43622D01*
X6424Y46378D02*
X5505D01*
X5046Y45918D01*
Y44082D01*
X5505Y43622D01*
X6424D01*
X6883Y44082D01*
Y45918D01*
X6424Y46378D01*
X4128Y16377D02*
X2291D01*
Y15000D01*
X3210Y15459D01*
X3669D01*
X4128Y15000D01*
Y14082D01*
X3669Y13623D01*
X2750D01*
X2291Y14082D01*
X5046Y16377D02*
Y14541D01*
X5965Y13623D01*
X6883Y14541D01*
Y16377D01*
X2291Y73623D02*
Y76377D01*
X3669D01*
X4128Y75918D01*
Y75000D01*
X3669Y74541D01*
X2291D01*
X3210D02*
X4128Y73623D01*
X5046Y75459D02*
X6883Y73623D01*
X5965Y74541D01*
X6883Y75459D01*
X5046Y73623D01*
X63117Y13623D02*
Y15459D01*
X64035Y16377D01*
X64954Y15459D01*
Y13623D01*
Y15000D01*
X63117D01*
X65872Y15918D02*
X66331Y16377D01*
X67250D01*
X67709Y15918D01*
Y14082D01*
X67250Y13623D01*
X66331D01*
X65872Y14082D01*
Y15918D01*
X63117Y43622D02*
Y45459D01*
X64035Y46378D01*
X64954Y45459D01*
Y43622D01*
Y45000D01*
X63117D01*
X65872Y45918D02*
X66331Y46378D01*
X67250D01*
X67709Y45918D01*
Y45459D01*
X67250Y45000D01*
X66790D01*
X67250D01*
X67709Y44541D01*
Y44082D01*
X67250Y43622D01*
X66331D01*
X65872Y44082D01*
D15*
X55905Y62894D02*
D03*
M02*
