G04*
G04 #@! TF.GenerationSoftware,Altium Limited,Altium Designer,24.6.1 (21)*
G04*
G04 Layer_Physical_Order=2*
G04 Layer_Color=36540*
%FSLAX25Y25*%
%MOIN*%
G70*
G04*
G04 #@! TF.SameCoordinates,E89A06A7-0658-4A87-8E90-D679E4E66743*
G04*
G04*
G04 #@! TF.FilePolarity,Positive*
G04*
G01*
G75*
%ADD11C,0.00394*%
%ADD68C,0.05906*%
%ADD70R,0.05000X0.05906*%
%ADD72C,0.01378*%
G36*
X26213Y78595D02*
X26443Y77977D01*
X26476Y77808D01*
X26168Y77348D01*
X26054Y76772D01*
X26168Y76196D01*
X26495Y75707D01*
X26983Y75381D01*
X27559Y75266D01*
X28135Y75381D01*
X28624Y75707D01*
X28950Y76196D01*
X29064Y76772D01*
X28950Y77348D01*
X28642Y77808D01*
X28675Y77977D01*
X28905Y78595D01*
X31260D01*
Y75245D01*
X31228Y75000D01*
X31260Y74755D01*
Y74213D01*
X31331D01*
X31356Y74024D01*
X31733Y73114D01*
X32333Y72333D01*
X33114Y71733D01*
X34024Y71356D01*
X35000Y71228D01*
X35976Y71356D01*
X36886Y71733D01*
X37668Y72333D01*
X38267Y73114D01*
X38644Y74024D01*
X38669Y74213D01*
X38740D01*
Y74755D01*
X38772Y75000D01*
X38740Y75245D01*
Y78595D01*
X45802D01*
X45894Y78465D01*
X45734Y77419D01*
X45299Y76768D01*
X45147Y76000D01*
X45299Y75232D01*
X45734Y74581D01*
X46385Y74146D01*
X47153Y73993D01*
X47922Y74146D01*
X48573Y74581D01*
X49008Y75232D01*
X49161Y76000D01*
X49008Y76768D01*
X48573Y77419D01*
X48413Y78465D01*
X48505Y78595D01*
X52495D01*
X52587Y78465D01*
X52427Y77419D01*
X51992Y76768D01*
X51839Y76000D01*
X51992Y75232D01*
X52427Y74581D01*
X53078Y74146D01*
X53847Y73993D01*
X54615Y74146D01*
X55266Y74581D01*
X55701Y75232D01*
X55853Y76000D01*
X55701Y76768D01*
X55266Y77419D01*
X55106Y78465D01*
X55198Y78595D01*
X65000D01*
X65354Y78595D01*
X66049Y78457D01*
X66703Y78186D01*
X66757Y78150D01*
X66713Y77362D01*
X66713D01*
Y74048D01*
X66142Y73666D01*
X65925Y73651D01*
X65000Y73772D01*
X64024Y73644D01*
X63114Y73267D01*
X62332Y72667D01*
X61733Y71886D01*
X61356Y70976D01*
X61228Y70000D01*
X61356Y69024D01*
X61733Y68114D01*
X62332Y67333D01*
X63114Y66733D01*
X64024Y66356D01*
X65000Y66228D01*
X65925Y66349D01*
X66142Y66334D01*
X66713Y65952D01*
Y64048D01*
X66142Y63666D01*
X65925Y63651D01*
X65000Y63772D01*
X64024Y63644D01*
X63114Y63267D01*
X62332Y62668D01*
X61733Y61886D01*
X61356Y60976D01*
X61228Y60000D01*
X61356Y59024D01*
X61733Y58114D01*
X62332Y57332D01*
X63114Y56733D01*
X64024Y56356D01*
X65000Y56228D01*
X65925Y56349D01*
X66142Y56334D01*
X66713Y55952D01*
Y54048D01*
X66142Y53666D01*
X65925Y53651D01*
X65000Y53772D01*
X64024Y53644D01*
X63114Y53267D01*
X62332Y52667D01*
X61733Y51886D01*
X61356Y50976D01*
X61228Y50000D01*
X61356Y49024D01*
X61733Y48114D01*
X62332Y47333D01*
X63114Y46733D01*
X64024Y46356D01*
X65000Y46228D01*
X65925Y46349D01*
X66142Y46334D01*
X66713Y45952D01*
Y44048D01*
X66142Y43666D01*
X65925Y43651D01*
X65000Y43772D01*
X64024Y43644D01*
X63146Y43280D01*
X63019Y43333D01*
X62434Y43738D01*
X62450Y43815D01*
X62335Y44391D01*
X62009Y44879D01*
X61520Y45206D01*
X60944Y45320D01*
X60368Y45206D01*
X59880Y44879D01*
X59135Y44942D01*
X58647Y45269D01*
X58071Y45383D01*
X57495Y45269D01*
X57007Y44942D01*
X56680Y44454D01*
X56566Y43878D01*
X56680Y43302D01*
X57007Y42814D01*
X57495Y42487D01*
X58071Y42373D01*
X58647Y42487D01*
X59135Y42814D01*
X59880Y42750D01*
X60368Y42424D01*
X60944Y42309D01*
X61102Y42341D01*
X61252Y42232D01*
X61633Y41644D01*
X61356Y40976D01*
X61228Y40000D01*
X61356Y39024D01*
X61733Y38114D01*
X62332Y37332D01*
X63114Y36733D01*
X64024Y36356D01*
X65000Y36228D01*
X65925Y36349D01*
X66142Y36334D01*
X66713Y35952D01*
Y34048D01*
X66142Y33666D01*
X65925Y33651D01*
X65000Y33772D01*
X64024Y33644D01*
X63114Y33267D01*
X62332Y32667D01*
X61733Y31886D01*
X61356Y30976D01*
X61228Y30000D01*
X61356Y29024D01*
X61733Y28114D01*
X62332Y27332D01*
X63114Y26733D01*
X64024Y26356D01*
X65000Y26228D01*
X65925Y26349D01*
X66142Y26334D01*
X66713Y25952D01*
Y24048D01*
X66142Y23666D01*
X65925Y23651D01*
X65000Y23772D01*
X64024Y23644D01*
X63114Y23267D01*
X62332Y22668D01*
X61733Y21886D01*
X61356Y20976D01*
X61228Y20000D01*
X61356Y19024D01*
X61733Y18114D01*
X62332Y17333D01*
X63114Y16733D01*
X64024Y16356D01*
X65000Y16228D01*
X65925Y16349D01*
X66142Y16334D01*
X66713Y15952D01*
Y14048D01*
X66142Y13666D01*
X65925Y13651D01*
X65000Y13772D01*
X64024Y13644D01*
X63114Y13267D01*
X62332Y12667D01*
X61733Y11886D01*
X61733Y11886D01*
X60793Y11627D01*
X60598Y11781D01*
X60545Y11886D01*
X60446Y12387D01*
X60119Y12875D01*
X59631Y13202D01*
X59055Y13316D01*
X58479Y13202D01*
X57991Y12875D01*
X57664Y12387D01*
X57550Y11811D01*
X57664Y11235D01*
X57991Y10747D01*
X58461Y10432D01*
X58452Y10419D01*
X58337Y9843D01*
X58452Y9267D01*
X58778Y8778D01*
X59267Y8452D01*
X59842Y8337D01*
X60419Y8452D01*
X60671Y8620D01*
X61439Y8501D01*
X61609Y8412D01*
X61733Y8114D01*
X62332Y7333D01*
X63114Y6733D01*
X64024Y6356D01*
X65000Y6228D01*
X65976Y6356D01*
X66886Y6733D01*
X67668Y7333D01*
X67808Y7515D01*
X68595Y7414D01*
Y5000D01*
X68595Y4646D01*
X68457Y3951D01*
X68186Y3297D01*
X67792Y2708D01*
X67292Y2207D01*
X66703Y1814D01*
X66049Y1543D01*
X65354Y1405D01*
X65000Y1405D01*
X5000Y1405D01*
X4646Y1405D01*
X3951Y1543D01*
X3297Y1814D01*
X2708Y2207D01*
X2207Y2708D01*
X1814Y3297D01*
X1543Y3951D01*
X1405Y4646D01*
X1405Y5000D01*
Y6260D01*
X4755D01*
X5000Y6228D01*
X5245Y6260D01*
X5787D01*
Y6331D01*
X5976Y6356D01*
X6886Y6733D01*
X7667Y7333D01*
X8267Y8114D01*
X8644Y9024D01*
X8772Y10000D01*
X8644Y10976D01*
X8267Y11886D01*
X7667Y12667D01*
X6886Y13267D01*
X5976Y13644D01*
X5787Y13669D01*
Y13740D01*
X5245D01*
X5000Y13772D01*
X4755Y13740D01*
X1405D01*
Y16047D01*
X2000D01*
Y20000D01*
Y23953D01*
X1405D01*
Y26260D01*
X4755D01*
X5000Y26228D01*
X5245Y26260D01*
X5787D01*
Y26331D01*
X5976Y26356D01*
X6886Y26733D01*
X7667Y27332D01*
X8267Y28114D01*
X8644Y29024D01*
X8772Y30000D01*
X8644Y30976D01*
X8267Y31886D01*
X7667Y32667D01*
X6886Y33267D01*
X5976Y33644D01*
X5787Y33669D01*
Y33740D01*
X5245D01*
X5000Y33772D01*
X4755Y33740D01*
X1405D01*
Y37415D01*
X2192Y37515D01*
X2332Y37332D01*
X3114Y36733D01*
X4024Y36356D01*
X5000Y36228D01*
X5976Y36356D01*
X6886Y36733D01*
X7667Y37332D01*
X8267Y38114D01*
X8644Y39024D01*
X8772Y40000D01*
X8644Y40976D01*
X8267Y41886D01*
X7667Y42667D01*
X6886Y43267D01*
X5976Y43644D01*
X5000Y43772D01*
X4075Y43651D01*
X3858Y43666D01*
X3287Y44048D01*
Y45952D01*
X3858Y46334D01*
X4075Y46349D01*
X5000Y46228D01*
X5976Y46356D01*
X6886Y46733D01*
X7667Y47333D01*
X8267Y48114D01*
X8644Y49024D01*
X8772Y50000D01*
X8644Y50976D01*
X8267Y51886D01*
X7667Y52667D01*
X6886Y53267D01*
X5976Y53644D01*
X5000Y53772D01*
X4075Y53651D01*
X3858Y53666D01*
X3287Y54048D01*
Y55952D01*
X3858Y56334D01*
X4075Y56349D01*
X5000Y56228D01*
X5976Y56356D01*
X6886Y56733D01*
X7667Y57332D01*
X8267Y58114D01*
X8644Y59024D01*
X8772Y60000D01*
X8644Y60976D01*
X8267Y61886D01*
X7667Y62668D01*
X6886Y63267D01*
X5976Y63644D01*
X5000Y63772D01*
X4075Y63651D01*
X3858Y63666D01*
X3287Y64048D01*
Y65952D01*
X3858Y66334D01*
X4075Y66349D01*
X5000Y66228D01*
X5976Y66356D01*
X6886Y66733D01*
X7667Y67333D01*
X8267Y68114D01*
X8644Y69024D01*
X8772Y70000D01*
X8644Y70976D01*
X8267Y71886D01*
X7667Y72667D01*
X6886Y73267D01*
X5976Y73644D01*
X5000Y73772D01*
X4075Y73651D01*
X3858Y73666D01*
X3287Y74048D01*
Y77362D01*
X3287D01*
X3243Y78150D01*
X3297Y78186D01*
X3951Y78457D01*
X4646Y78595D01*
X5000Y78595D01*
X26213Y78595D01*
D02*
G37*
%LPC*%
G36*
X39370Y70797D02*
X38794Y70682D01*
X38306Y70356D01*
X37979Y69867D01*
X37865Y69291D01*
X37979Y68715D01*
X38306Y68227D01*
X38794Y67901D01*
X39370Y67786D01*
X39946Y67901D01*
X40435Y68227D01*
X40761Y68715D01*
X40875Y69291D01*
X40761Y69867D01*
X40435Y70356D01*
X39946Y70682D01*
X39370Y70797D01*
D02*
G37*
G36*
X32283Y70305D02*
X31707Y70190D01*
X31219Y69864D01*
X30893Y69375D01*
X30778Y68799D01*
X30893Y68223D01*
X31219Y67735D01*
X31707Y67409D01*
X32283Y67294D01*
X32860Y67409D01*
X33348Y67735D01*
X33674Y68223D01*
X33789Y68799D01*
X33674Y69375D01*
X33348Y69864D01*
X32860Y70190D01*
X32283Y70305D01*
D02*
G37*
G36*
X44882Y69616D02*
X44306Y69501D01*
X43817Y69175D01*
X43491Y68686D01*
X43377Y68110D01*
X43491Y67534D01*
X43817Y67046D01*
X44306Y66720D01*
X44882Y66605D01*
X45458Y66720D01*
X45946Y67046D01*
X46273Y67534D01*
X46387Y68110D01*
X46273Y68686D01*
X45946Y69175D01*
X45458Y69501D01*
X44882Y69616D01*
D02*
G37*
G36*
X15748Y69222D02*
X15172Y69107D01*
X14684Y68781D01*
X14357Y68293D01*
X14243Y67716D01*
X14357Y67141D01*
X14684Y66652D01*
X15172Y66326D01*
X15748Y66211D01*
X16324Y66326D01*
X16812Y66652D01*
X17139Y67141D01*
X17253Y67716D01*
X17139Y68293D01*
X16812Y68781D01*
X16324Y69107D01*
X15748Y69222D01*
D02*
G37*
G36*
X30709Y63676D02*
X30133Y63562D01*
X29644Y63235D01*
X29606Y63178D01*
X28662D01*
X28624Y63235D01*
X28135Y63562D01*
X27559Y63676D01*
X26983Y63562D01*
X26495Y63235D01*
X26168Y62747D01*
X26054Y62171D01*
X26168Y61595D01*
X26495Y61106D01*
X26983Y60780D01*
X27629Y60630D01*
X27743Y60054D01*
X28069Y59566D01*
X28558Y59239D01*
X29134Y59125D01*
X29710Y59239D01*
X30016Y59443D01*
X30656Y59292D01*
X30875Y59161D01*
X30893Y59070D01*
X31219Y58581D01*
X31707Y58255D01*
X32283Y58140D01*
X32860Y58255D01*
X33348Y58581D01*
X33674Y59070D01*
X33789Y59646D01*
X33674Y60222D01*
X33348Y60710D01*
X32860Y61036D01*
X32695Y61069D01*
X32232Y61478D01*
X32163Y61917D01*
X32214Y62171D01*
X32099Y62747D01*
X31773Y63235D01*
X31285Y63562D01*
X30709Y63676D01*
D02*
G37*
G36*
X38583Y63316D02*
X38007Y63202D01*
X37598Y62929D01*
X37190Y63202D01*
X36614Y63316D01*
X36038Y63202D01*
X35550Y62875D01*
X35223Y62387D01*
X35109Y61811D01*
X35223Y61235D01*
X35550Y60747D01*
X36038Y60420D01*
X36614Y60306D01*
X37190Y60420D01*
X37598Y60693D01*
X38007Y60420D01*
X38583Y60306D01*
X39159Y60420D01*
X39647Y60747D01*
X39973Y61235D01*
X40088Y61811D01*
X39973Y62387D01*
X39647Y62875D01*
X39159Y63202D01*
X38583Y63316D01*
D02*
G37*
G36*
X15748Y64891D02*
X15172Y64776D01*
X14684Y64450D01*
X14357Y63962D01*
X14243Y63386D01*
X14357Y62810D01*
X14684Y62321D01*
X15172Y61995D01*
X15748Y61880D01*
X16324Y61995D01*
X16812Y62321D01*
X17139Y62810D01*
X17253Y63386D01*
X17139Y63962D01*
X16812Y64450D01*
X16324Y64776D01*
X15748Y64891D01*
D02*
G37*
G36*
X11688Y61107D02*
X11112Y60992D01*
X10624Y60666D01*
X10298Y60177D01*
X10183Y59601D01*
X10298Y59025D01*
X10624Y58537D01*
X11112Y58211D01*
X11688Y58096D01*
X12264Y58211D01*
X12753Y58537D01*
X13079Y59025D01*
X13194Y59601D01*
X13079Y60177D01*
X12753Y60666D01*
X12264Y60992D01*
X11688Y61107D01*
D02*
G37*
G36*
X23262Y60954D02*
X22686Y60839D01*
X22198Y60513D01*
X21871Y60025D01*
X21757Y59449D01*
X21871Y58873D01*
X22198Y58384D01*
X22686Y58058D01*
X23262Y57943D01*
X23838Y58058D01*
X24327Y58384D01*
X24653Y58873D01*
X24767Y59449D01*
X24653Y60025D01*
X24327Y60513D01*
X23838Y60839D01*
X23262Y60954D01*
D02*
G37*
G36*
X51968Y58198D02*
X51392Y58084D01*
X50904Y57757D01*
X50578Y57269D01*
X50463Y56693D01*
X50578Y56117D01*
X50904Y55629D01*
X51392Y55302D01*
X51968Y55188D01*
X52545Y55302D01*
X53033Y55629D01*
X53359Y56117D01*
X53474Y56693D01*
X53359Y57269D01*
X53033Y57757D01*
X52545Y58084D01*
X51968Y58198D01*
D02*
G37*
G36*
X24803Y56230D02*
X24227Y56115D01*
X23739Y55789D01*
X23413Y55300D01*
X23262Y54655D01*
X22686Y54540D01*
X22198Y54214D01*
X21871Y53726D01*
X21757Y53150D01*
X21871Y52574D01*
X22198Y52085D01*
X22686Y51759D01*
X23262Y51644D01*
X23838Y51759D01*
X24327Y52085D01*
X24653Y52574D01*
X24803Y53219D01*
X25379Y53334D01*
X25868Y53660D01*
X26194Y54148D01*
X26308Y54724D01*
X26194Y55300D01*
X25868Y55789D01*
X25379Y56115D01*
X24803Y56230D01*
D02*
G37*
G36*
X15748Y57805D02*
X15172Y57690D01*
X14684Y57364D01*
X14357Y56875D01*
X14243Y56299D01*
X14357Y55723D01*
X14684Y55235D01*
X14741Y55196D01*
Y54252D01*
X14684Y54214D01*
X14357Y53726D01*
X14243Y53150D01*
X14357Y52574D01*
X14684Y52085D01*
X15172Y51759D01*
X15748Y51644D01*
X16324Y51759D01*
X16812Y52085D01*
X17139Y52574D01*
X17253Y53150D01*
X17139Y53726D01*
X16812Y54214D01*
X16755Y54252D01*
Y55196D01*
X16812Y55235D01*
X17139Y55723D01*
X17253Y56299D01*
X17139Y56875D01*
X16812Y57364D01*
X16324Y57690D01*
X15748Y57805D01*
D02*
G37*
G36*
X56594Y53213D02*
X56018Y53098D01*
X55529Y52772D01*
X55203Y52284D01*
X55089Y51708D01*
X55203Y51131D01*
X55529Y50643D01*
X56018Y50317D01*
X56594Y50202D01*
X57170Y50317D01*
X57658Y50643D01*
X57985Y51131D01*
X58099Y51708D01*
X57985Y52284D01*
X57658Y52772D01*
X57170Y53098D01*
X56594Y53213D01*
D02*
G37*
G36*
X11811Y51505D02*
X11235Y51391D01*
X10747Y51064D01*
X10420Y50576D01*
X10306Y50000D01*
X10420Y49424D01*
X10747Y48936D01*
X11235Y48609D01*
X11811Y48495D01*
X12387Y48609D01*
X12875Y48936D01*
X13202Y49424D01*
X13316Y50000D01*
X13202Y50576D01*
X12875Y51064D01*
X12387Y51391D01*
X11811Y51505D01*
D02*
G37*
G36*
X51968Y50324D02*
X51393Y50210D01*
X50904Y49883D01*
X50578Y49395D01*
X50463Y48819D01*
X50578Y48243D01*
X50904Y47754D01*
X51393Y47428D01*
X51968Y47314D01*
X52545Y47428D01*
X53033Y47754D01*
X53359Y48243D01*
X53474Y48819D01*
X53359Y49395D01*
X53033Y49883D01*
X52545Y50210D01*
X51968Y50324D01*
D02*
G37*
G36*
X42913Y48356D02*
X42337Y48241D01*
X41849Y47915D01*
X41523Y47427D01*
X41408Y46850D01*
X41523Y46274D01*
X41849Y45786D01*
X41854Y45016D01*
X41743Y44883D01*
X41244Y44502D01*
X40825Y44586D01*
X40249Y44471D01*
X39760Y44145D01*
X39434Y43656D01*
X39320Y43080D01*
X39382Y42768D01*
X39188Y42729D01*
X38699Y42403D01*
X38373Y41915D01*
X38258Y41339D01*
X38373Y40762D01*
X38699Y40274D01*
X39188Y39948D01*
X39764Y39833D01*
X40340Y39948D01*
X40828Y40274D01*
X41519Y40289D01*
X42007Y39963D01*
X42584Y39848D01*
X43159Y39963D01*
X43648Y40289D01*
X43938Y40723D01*
X44454Y40621D01*
X45031Y40735D01*
X45519Y41062D01*
X45845Y41550D01*
X45960Y42126D01*
X45845Y42702D01*
X45519Y43190D01*
X45461Y43229D01*
Y44173D01*
X45519Y44211D01*
X45845Y44699D01*
X45960Y45276D01*
X45845Y45852D01*
X45519Y46340D01*
X45031Y46666D01*
X44454Y46781D01*
X44304Y47427D01*
X43978Y47915D01*
X43489Y48241D01*
X42913Y48356D01*
D02*
G37*
G36*
X54134Y45383D02*
X53558Y45269D01*
X53070Y44942D01*
X52743Y44454D01*
X52629Y43878D01*
X52743Y43302D01*
X53070Y42814D01*
X53558Y42487D01*
X54134Y42373D01*
X54710Y42487D01*
X55198Y42814D01*
X55525Y43302D01*
X55639Y43878D01*
X55525Y44454D01*
X55198Y44942D01*
X54710Y45269D01*
X54134Y45383D01*
D02*
G37*
G36*
X24803Y49931D02*
X24227Y49816D01*
X23739Y49490D01*
X23413Y49001D01*
X23262Y48356D01*
X22686Y48241D01*
X22198Y47915D01*
X21871Y47426D01*
X21757Y46850D01*
X21871Y46274D01*
X22198Y45786D01*
X22255Y45748D01*
Y44804D01*
X22198Y44765D01*
X21871Y44277D01*
X21757Y43701D01*
X21871Y43125D01*
X22198Y42636D01*
X22686Y42310D01*
X23262Y42195D01*
X23838Y42310D01*
X24327Y42636D01*
X24653Y43125D01*
X24803Y43770D01*
X25379Y43885D01*
X25868Y44211D01*
X26194Y44699D01*
X26308Y45276D01*
X26194Y45852D01*
X25868Y46340D01*
X25810Y46378D01*
Y47322D01*
X25868Y47361D01*
X26194Y47849D01*
X26308Y48425D01*
X26194Y49001D01*
X25868Y49490D01*
X25379Y49816D01*
X24803Y49931D01*
D02*
G37*
G36*
X15748Y45206D02*
X15172Y45092D01*
X14684Y44765D01*
X14357Y44277D01*
X14243Y43701D01*
X14357Y43125D01*
X14684Y42636D01*
X15172Y42310D01*
X15748Y42195D01*
X16324Y42310D01*
X16812Y42636D01*
X17139Y43125D01*
X17253Y43701D01*
X17139Y44277D01*
X16812Y44765D01*
X16324Y45092D01*
X15748Y45206D01*
D02*
G37*
G36*
X49213Y42057D02*
X48636Y41942D01*
X48148Y41616D01*
X47822Y41127D01*
X47707Y40551D01*
X47754Y40314D01*
X47046Y39841D01*
X46847Y39973D01*
X46271Y40088D01*
X45695Y39973D01*
X45207Y39647D01*
X44881Y39159D01*
X44766Y38583D01*
X44881Y38007D01*
X45207Y37518D01*
X45695Y37192D01*
X46271Y37077D01*
X46847Y37192D01*
X47336Y37518D01*
X47662Y38007D01*
X47776Y38583D01*
X47729Y38820D01*
X48438Y39293D01*
X48636Y39160D01*
X49213Y39046D01*
X49789Y39160D01*
X50277Y39487D01*
X50603Y39975D01*
X50718Y40551D01*
X50603Y41127D01*
X50277Y41616D01*
X49789Y41942D01*
X49213Y42057D01*
D02*
G37*
G36*
X27559Y42450D02*
X26983Y42336D01*
X26495Y42009D01*
X26168Y41521D01*
X26054Y40945D01*
X26168Y40369D01*
X26495Y39881D01*
X26983Y39554D01*
X27559Y39440D01*
X28135Y39554D01*
X28624Y39881D01*
X29447Y39880D01*
X29936Y39554D01*
X30512Y39440D01*
X31088Y39554D01*
X31496Y39827D01*
X31904Y39554D01*
X32480Y39440D01*
X33056Y39554D01*
X33545Y39880D01*
X33871Y40369D01*
X33986Y40945D01*
X33871Y41521D01*
X33545Y42009D01*
X33056Y42336D01*
X32480Y42450D01*
X31904Y42336D01*
X31496Y42063D01*
X31088Y42336D01*
X30512Y42450D01*
X29936Y42336D01*
X29447Y42009D01*
X28623Y42009D01*
X28135Y42336D01*
X27559Y42450D01*
D02*
G37*
G36*
X11811Y42057D02*
X11235Y41942D01*
X10747Y41616D01*
X10420Y41127D01*
X10306Y40551D01*
X10420Y39975D01*
X10747Y39487D01*
X11235Y39160D01*
X11811Y39046D01*
X12387Y39160D01*
X12875Y39487D01*
X13202Y39975D01*
X13316Y40551D01*
X13202Y41127D01*
X12875Y41616D01*
X12387Y41942D01*
X11811Y42057D01*
D02*
G37*
G36*
X18012Y42057D02*
X17436Y41942D01*
X16947Y41616D01*
X16621Y41127D01*
X16507Y40551D01*
X16621Y39975D01*
X16947Y39487D01*
X17436Y39160D01*
X18012Y39046D01*
X18588Y39160D01*
X19076Y39487D01*
X19402Y39975D01*
X19517Y40551D01*
X19402Y41127D01*
X19076Y41616D01*
X18588Y41942D01*
X18012Y42057D01*
D02*
G37*
G36*
X44488Y34970D02*
X43912Y34855D01*
X43424Y34529D01*
X43385Y34471D01*
X42441D01*
X42403Y34529D01*
X41915Y34855D01*
X41339Y34970D01*
X40762Y34855D01*
X40274Y34529D01*
X39979Y34088D01*
X39602Y34041D01*
X39532D01*
X39154Y34088D01*
X38860Y34529D01*
X38371Y34855D01*
X37795Y34970D01*
X37219Y34855D01*
X36731Y34529D01*
X36436Y34088D01*
X36059Y34041D01*
X35989D01*
X35611Y34088D01*
X35316Y34529D01*
X34828Y34855D01*
X34252Y34970D01*
X33676Y34855D01*
X33188Y34529D01*
X32861Y34041D01*
X32747Y33465D01*
X32861Y32888D01*
X33188Y32400D01*
X33676Y32074D01*
X34252Y31959D01*
X34828Y32074D01*
X35316Y32400D01*
X35611Y32841D01*
X35989Y32888D01*
X36059D01*
X36436Y32841D01*
X36731Y32400D01*
X37219Y32074D01*
X37795Y31959D01*
X38371Y32074D01*
X38860Y32400D01*
X39154Y32841D01*
X39532Y32888D01*
X39602D01*
X39979Y32841D01*
X40274Y32400D01*
X40762Y32074D01*
X41339Y31959D01*
X41915Y32074D01*
X42403Y32400D01*
X42441Y32458D01*
X43385D01*
X43424Y32400D01*
X43912Y32074D01*
X44488Y31959D01*
X45064Y32074D01*
X45553Y32400D01*
X45847Y32841D01*
X46225Y32888D01*
X46295D01*
X46672Y32841D01*
X46967Y32400D01*
X47455Y32074D01*
X48031Y31959D01*
X48608Y32074D01*
X49096Y32400D01*
X49422Y32888D01*
X49537Y33465D01*
X49422Y34041D01*
X49096Y34529D01*
X48608Y34855D01*
X48031Y34970D01*
X47455Y34855D01*
X46967Y34529D01*
X46672Y34088D01*
X46295Y34041D01*
X46225D01*
X45847Y34088D01*
X45553Y34529D01*
X45064Y34855D01*
X44488Y34970D01*
D02*
G37*
G36*
X15748Y35757D02*
X15172Y35643D01*
X14684Y35316D01*
X14357Y34828D01*
X14243Y34252D01*
X14357Y33676D01*
X14684Y33188D01*
X15172Y32861D01*
X15748Y32747D01*
X16324Y32861D01*
X16812Y33188D01*
X17139Y33676D01*
X17253Y34252D01*
X17139Y34828D01*
X16812Y35316D01*
X16324Y35643D01*
X15748Y35757D01*
D02*
G37*
G36*
X56102Y34005D02*
X55526Y33891D01*
X55038Y33564D01*
X54712Y33076D01*
X54597Y32500D01*
X54712Y31924D01*
X55038Y31436D01*
X55526Y31109D01*
X56102Y30995D01*
X56678Y31109D01*
X57167Y31436D01*
X57493Y31924D01*
X57608Y32500D01*
X57493Y33076D01*
X57167Y33564D01*
X56678Y33891D01*
X56102Y34005D01*
D02*
G37*
G36*
X52165D02*
X51589Y33891D01*
X51101Y33564D01*
X50775Y33076D01*
X50660Y32500D01*
X50775Y31924D01*
X51101Y31436D01*
X51589Y31109D01*
X52165Y30995D01*
X52741Y31109D01*
X53230Y31436D01*
X53556Y31924D01*
X53671Y32500D01*
X53556Y33076D01*
X53230Y33564D01*
X52741Y33891D01*
X52165Y34005D01*
D02*
G37*
G36*
X11220Y32214D02*
X10644Y32099D01*
X10156Y31773D01*
X9830Y31285D01*
X9715Y30709D01*
X9830Y30133D01*
X10156Y29644D01*
X10644Y29318D01*
X11220Y29203D01*
X11796Y29318D01*
X12285Y29644D01*
X12611Y30133D01*
X12726Y30709D01*
X12611Y31285D01*
X12285Y31773D01*
X11796Y32099D01*
X11220Y32214D01*
D02*
G37*
G36*
X37953Y26928D02*
X37377Y26814D01*
X36888Y26488D01*
X36562Y25999D01*
X36448Y25423D01*
X36562Y24847D01*
X36888Y24359D01*
X37377Y24033D01*
X37953Y23918D01*
X38529Y24033D01*
X39017Y24359D01*
X39344Y24847D01*
X39458Y25423D01*
X39344Y25999D01*
X39017Y26488D01*
X38529Y26814D01*
X37953Y26928D01*
D02*
G37*
G36*
X34016D02*
X33440Y26814D01*
X32951Y26488D01*
X32625Y25999D01*
X32510Y25423D01*
X32625Y24847D01*
X32951Y24359D01*
X33440Y24033D01*
X34016Y23918D01*
X34592Y24033D01*
X35080Y24359D01*
X35407Y24847D01*
X35521Y25423D01*
X35407Y25999D01*
X35080Y26488D01*
X34592Y26814D01*
X34016Y26928D01*
D02*
G37*
G36*
X18307Y28769D02*
X17731Y28655D01*
X17243Y28328D01*
X16916Y27840D01*
X16802Y27264D01*
X16916Y26688D01*
X17243Y26199D01*
X17305Y26158D01*
X17113Y25871D01*
X16999Y25295D01*
X17113Y24719D01*
X17439Y24231D01*
X17928Y23905D01*
X18504Y23790D01*
X19080Y23905D01*
X19568Y24231D01*
X19895Y24719D01*
X20009Y25295D01*
X19895Y25871D01*
X19568Y26360D01*
X19506Y26401D01*
X19698Y26688D01*
X19812Y27264D01*
X19698Y27840D01*
X19372Y28328D01*
X18883Y28655D01*
X18307Y28769D01*
D02*
G37*
G36*
X57087Y30344D02*
X56511Y30229D01*
X56022Y29903D01*
X55696Y29415D01*
X55581Y28839D01*
X55696Y28262D01*
X56022Y27774D01*
X56463Y27479D01*
X56511Y27102D01*
Y27032D01*
X56463Y26654D01*
X56022Y26360D01*
X55696Y25871D01*
X55581Y25295D01*
X55696Y24719D01*
X56022Y24231D01*
X56511Y23905D01*
X57087Y23790D01*
X57663Y23905D01*
X58151Y24231D01*
X58477Y24719D01*
X58592Y25295D01*
X58477Y25871D01*
X58151Y26360D01*
X57710Y26654D01*
X57663Y27032D01*
Y27102D01*
X57710Y27479D01*
X58151Y27774D01*
X58477Y28262D01*
X58592Y28839D01*
X58477Y29415D01*
X58151Y29903D01*
X57663Y30229D01*
X57087Y30344D01*
D02*
G37*
G36*
X24961Y25944D02*
X24385Y25830D01*
X23896Y25503D01*
X23570Y25015D01*
X23455Y24439D01*
X23570Y23863D01*
X23896Y23375D01*
X24385Y23048D01*
X24737Y22978D01*
X24636Y22470D01*
X24751Y21894D01*
X25077Y21406D01*
X25566Y21080D01*
X26142Y20965D01*
X26718Y21080D01*
X27206Y21406D01*
X27533Y21894D01*
X27647Y22470D01*
X27533Y23046D01*
X27206Y23535D01*
X26718Y23861D01*
X26365Y23931D01*
X26466Y24439D01*
X26351Y25015D01*
X26025Y25503D01*
X25537Y25830D01*
X24961Y25944D01*
D02*
G37*
G36*
X45039Y25944D02*
X44463Y25830D01*
X43975Y25503D01*
X43649Y25015D01*
X43534Y24439D01*
X43635Y23931D01*
X43282Y23861D01*
X42794Y23535D01*
X42468Y23046D01*
X42353Y22470D01*
X42468Y21894D01*
X42794Y21406D01*
X43282Y21080D01*
X43858Y20965D01*
X44434Y21080D01*
X44923Y21406D01*
X45249Y21894D01*
X45364Y22470D01*
X45263Y22978D01*
X45615Y23048D01*
X46104Y23375D01*
X46430Y23863D01*
X46545Y24439D01*
X46430Y25015D01*
X46104Y25503D01*
X45615Y25830D01*
X45039Y25944D01*
D02*
G37*
G36*
X6000Y23953D02*
X5500D01*
Y20500D01*
X8921D01*
X8851Y21032D01*
X8453Y21993D01*
X7819Y22819D01*
X6993Y23453D01*
X6032Y23851D01*
X6000Y23855D01*
Y23953D01*
D02*
G37*
G36*
X8921Y19500D02*
X5500D01*
Y16047D01*
X6000D01*
Y16145D01*
X6032Y16149D01*
X6993Y16547D01*
X7819Y17181D01*
X8453Y18007D01*
X8851Y18968D01*
X8921Y19500D01*
D02*
G37*
G36*
X4500Y23953D02*
X3000D01*
Y20000D01*
Y16047D01*
X4500D01*
Y20000D01*
Y23953D01*
D02*
G37*
G36*
X46378Y19871D02*
X45572Y19711D01*
X44888Y19254D01*
X44431Y18570D01*
X44271Y17764D01*
X44431Y16957D01*
X44888Y16274D01*
X45572Y15817D01*
X46378Y15656D01*
X47184Y15817D01*
X47868Y16274D01*
X48325Y16957D01*
X48485Y17764D01*
X48325Y18570D01*
X47868Y19254D01*
X47184Y19711D01*
X46378Y19871D01*
D02*
G37*
G36*
X23622D02*
X22816Y19711D01*
X22132Y19254D01*
X21675Y18570D01*
X21515Y17764D01*
X21675Y16957D01*
X22132Y16274D01*
X22816Y15817D01*
X23622Y15656D01*
X24429Y15817D01*
X25112Y16274D01*
X25569Y16957D01*
X25730Y17764D01*
X25569Y18570D01*
X25112Y19254D01*
X24429Y19711D01*
X23622Y19871D01*
D02*
G37*
G36*
X14000Y15368D02*
X13424Y15253D01*
X12936Y14927D01*
X12609Y14438D01*
X12495Y13862D01*
X12609Y13286D01*
X12936Y12798D01*
Y12761D01*
X12609Y12273D01*
X12495Y11697D01*
X12586Y11236D01*
X12492Y11066D01*
X12355Y10906D01*
X12004Y10610D01*
X11638Y10683D01*
X11062Y10568D01*
X10573Y10242D01*
X10247Y9753D01*
X10132Y9177D01*
X10247Y8601D01*
X10573Y8113D01*
X11062Y7786D01*
X11638Y7672D01*
X12214Y7786D01*
X12702Y8113D01*
X13028Y8601D01*
X13143Y9177D01*
X13051Y9639D01*
X13146Y9808D01*
X13283Y9968D01*
X13634Y10264D01*
X14000Y10192D01*
X14366Y10264D01*
X14717Y9968D01*
X14854Y9808D01*
X14949Y9639D01*
X14857Y9177D01*
X14972Y8601D01*
X15298Y8113D01*
X15786Y7786D01*
X16362Y7672D01*
X16938Y7786D01*
X17427Y8113D01*
X17753Y8601D01*
X17867Y9177D01*
X17753Y9753D01*
X17427Y10242D01*
X16938Y10568D01*
X16362Y10683D01*
X15996Y10610D01*
X15645Y10906D01*
X15508Y11066D01*
X15414Y11236D01*
X15505Y11697D01*
X15391Y12273D01*
X15064Y12761D01*
Y12798D01*
X15391Y13286D01*
X15505Y13862D01*
X15391Y14438D01*
X15064Y14927D01*
X14576Y15253D01*
X14000Y15368D01*
D02*
G37*
%LPD*%
D11*
X65000Y-0D02*
G03*
X70000Y5000I0J5000D01*
G01*
X70000Y75000D02*
G03*
X65000Y80000I-5000J0D01*
G01*
X5000Y80000D02*
G03*
X0Y75000I0J-5000D01*
G01*
X-0Y5000D02*
G03*
X5000Y0I5000J0D01*
G01*
X0Y5000D02*
Y75000D01*
X5000Y80000D02*
X65000D01*
X70000Y5000D02*
Y75000D01*
X5000Y0D02*
X65000D01*
D68*
X5000Y20000D02*
D03*
D70*
X2500D02*
D03*
D72*
X14310Y25848D02*
D03*
X48031Y29528D02*
D03*
X37795D02*
D03*
X48560Y68503D02*
D03*
X55905Y57087D02*
D03*
X57000Y9850D02*
D03*
X65969Y4000D02*
D03*
X15039Y3396D02*
D03*
X54961D02*
D03*
X54961Y19852D02*
D03*
X15039D02*
D03*
X48287Y24439D02*
D03*
X47106Y22470D02*
D03*
X22894Y22470D02*
D03*
X21713Y24439D02*
D03*
X38386Y47244D02*
D03*
X29528D02*
D03*
X28740Y56102D02*
D03*
X38386D02*
D03*
X24409Y40551D02*
D03*
X55905Y48819D02*
D03*
X35433Y68799D02*
D03*
X28346D02*
D03*
X27559Y72835D02*
D03*
X12598Y76772D02*
D03*
X11811Y63386D02*
D03*
Y56299D02*
D03*
Y53150D02*
D03*
X34252Y29528D02*
D03*
X53150Y25295D02*
D03*
Y28839D02*
D03*
X11220Y26772D02*
D03*
X11811Y34252D02*
D03*
X11811Y37402D02*
D03*
Y46850D02*
D03*
Y43701D02*
D03*
X56398Y64272D02*
D03*
M02*
