G04*
G04 #@! TF.GenerationSoftware,Altium Limited,Altium Designer,24.6.1 (21)*
G04*
G04 Layer_Color=2752767*
%FSLAX25Y25*%
%MOIN*%
G70*
G04*
G04 #@! TF.SameCoordinates,E89A06A7-0658-4A87-8E90-D679E4E66743*
G04*
G04*
G04 #@! TF.FilePolarity,Positive*
G04*
G01*
G75*
%ADD11C,0.00394*%
%ADD79C,0.00200*%
%ADD80C,0.00267*%
D11*
X65000Y-0D02*
G03*
X70000Y5000I0J5000D01*
G01*
X70000Y75000D02*
G03*
X65000Y80000I-5000J0D01*
G01*
X5000Y80000D02*
G03*
X0Y75000I0J-5000D01*
G01*
X-0Y5000D02*
G03*
X5000Y0I5000J0D01*
G01*
X0Y5000D02*
Y75000D01*
X5000Y80000D02*
X65000D01*
X70000Y5000D02*
Y75000D01*
X5000Y0D02*
X65000D01*
D79*
X22822Y16964D02*
Y18564D01*
X24422D01*
Y16964D01*
X22822D01*
X45578D02*
Y18564D01*
X47178D01*
Y16964D01*
X45578D01*
X53847Y75200D02*
X53047Y76800D01*
X54646D01*
X53847Y75200D01*
X47153D02*
X46354Y76800D01*
X47954D01*
X47153Y75200D01*
X70000Y34200D02*
X70400Y34600D01*
X70800D01*
X70400Y35000D01*
X70800Y35400D01*
X70400D01*
X70000Y35800D01*
X69600Y35400D01*
X69200D01*
X69600Y35000D01*
X69200Y34600D01*
X69600D01*
X70000Y34200D01*
X0Y74200D02*
X400Y74600D01*
X800D01*
X400Y75000D01*
X800Y75400D01*
X400D01*
X0Y75800D01*
X-400Y75400D01*
X-800D01*
X-400Y75000D01*
X-800Y74600D01*
X-400D01*
X0Y74200D01*
Y69200D02*
X400Y69600D01*
X800D01*
X400Y70000D01*
X800Y70400D01*
X400D01*
X0Y70800D01*
X-400Y70400D01*
X-800D01*
X-400Y70000D01*
X-800Y69600D01*
X-400D01*
X0Y69200D01*
Y54200D02*
X400Y54600D01*
X800D01*
X400Y55000D01*
X800Y55400D01*
X400D01*
X0Y55800D01*
X-400Y55400D01*
X-800D01*
X-400Y55000D01*
X-800Y54600D01*
X-400D01*
X0Y54200D01*
Y59200D02*
X400Y59600D01*
X800D01*
X400Y60000D01*
X800Y60400D01*
X400D01*
X0Y60800D01*
X-400Y60400D01*
X-800D01*
X-400Y60000D01*
X-800Y59600D01*
X-400D01*
X0Y59200D01*
Y49200D02*
X400Y49600D01*
X800D01*
X400Y50000D01*
X800Y50400D01*
X400D01*
X0Y50800D01*
X-400Y50400D01*
X-800D01*
X-400Y50000D01*
X-800Y49600D01*
X-400D01*
X0Y49200D01*
Y39200D02*
X400Y39600D01*
X800D01*
X400Y40000D01*
X800Y40400D01*
X400D01*
X0Y40800D01*
X-400Y40400D01*
X-800D01*
X-400Y40000D01*
X-800Y39600D01*
X-400D01*
X0Y39200D01*
Y44200D02*
X400Y44600D01*
X800D01*
X400Y45000D01*
X800Y45400D01*
X400D01*
X0Y45800D01*
X-400Y45400D01*
X-800D01*
X-400Y45000D01*
X-800Y44600D01*
X-400D01*
X0Y44200D01*
Y64200D02*
X400Y64600D01*
X800D01*
X400Y65000D01*
X800Y65400D01*
X400D01*
X0Y65800D01*
X-400Y65400D01*
X-800D01*
X-400Y65000D01*
X-800Y64600D01*
X-400D01*
X0Y64200D01*
X70000Y39200D02*
X70400Y39600D01*
X70800D01*
X70400Y40000D01*
X70800Y40400D01*
X70400D01*
X70000Y40800D01*
X69600Y40400D01*
X69200D01*
X69600Y40000D01*
X69200Y39600D01*
X69600D01*
X70000Y39200D01*
Y29200D02*
X70400Y29600D01*
X70800D01*
X70400Y30000D01*
X70800Y30400D01*
X70400D01*
X70000Y30800D01*
X69600Y30400D01*
X69200D01*
X69600Y30000D01*
X69200Y29600D01*
X69600D01*
X70000Y29200D01*
Y69200D02*
X70400Y69600D01*
X70800D01*
X70400Y70000D01*
X70800Y70400D01*
X70400D01*
X70000Y70800D01*
X69600Y70400D01*
X69200D01*
X69600Y70000D01*
X69200Y69600D01*
X69600D01*
X70000Y69200D01*
Y19200D02*
X70400Y19600D01*
X70800D01*
X70400Y20000D01*
X70800Y20400D01*
X70400D01*
X70000Y20800D01*
X69600Y20400D01*
X69200D01*
X69600Y20000D01*
X69200Y19600D01*
X69600D01*
X70000Y19200D01*
Y9200D02*
X70400Y9600D01*
X70800D01*
X70400Y10000D01*
X70800Y10400D01*
X70400D01*
X70000Y10800D01*
X69600Y10400D01*
X69200D01*
X69600Y10000D01*
X69200Y9600D01*
X69600D01*
X70000Y9200D01*
Y44200D02*
X70400Y44600D01*
X70800D01*
X70400Y45000D01*
X70800Y45400D01*
X70400D01*
X70000Y45800D01*
X69600Y45400D01*
X69200D01*
X69600Y45000D01*
X69200Y44600D01*
X69600D01*
X70000Y44200D01*
Y54200D02*
X70400Y54600D01*
X70800D01*
X70400Y55000D01*
X70800Y55400D01*
X70400D01*
X70000Y55800D01*
X69600Y55400D01*
X69200D01*
X69600Y55000D01*
X69200Y54600D01*
X69600D01*
X70000Y54200D01*
Y64200D02*
X70400Y64600D01*
X70800D01*
X70400Y65000D01*
X70800Y65400D01*
X70400D01*
X70000Y65800D01*
X69600Y65400D01*
X69200D01*
X69600Y65000D01*
X69200Y64600D01*
X69600D01*
X70000Y64200D01*
Y59200D02*
X70400Y59600D01*
X70800D01*
X70400Y60000D01*
X70800Y60400D01*
X70400D01*
X70000Y60800D01*
X69600Y60400D01*
X69200D01*
X69600Y60000D01*
X69200Y59600D01*
X69600D01*
X70000Y59200D01*
Y49200D02*
X70400Y49600D01*
X70800D01*
X70400Y50000D01*
X70800Y50400D01*
X70400D01*
X70000Y50800D01*
X69600Y50400D01*
X69200D01*
X69600Y50000D01*
X69200Y49600D01*
X69600D01*
X70000Y49200D01*
Y24200D02*
X70400Y24600D01*
X70800D01*
X70400Y25000D01*
X70800Y25400D01*
X70400D01*
X70000Y25800D01*
X69600Y25400D01*
X69200D01*
X69600Y25000D01*
X69200Y24600D01*
X69600D01*
X70000Y24200D01*
Y14200D02*
X70400Y14600D01*
X70800D01*
X70400Y15000D01*
X70800Y15400D01*
X70400D01*
X70000Y15800D01*
X69600Y15400D01*
X69200D01*
X69600Y15000D01*
X69200Y14600D01*
X69600D01*
X70000Y14200D01*
Y74200D02*
X70400Y74600D01*
X70800D01*
X70400Y75000D01*
X70800Y75400D01*
X70400D01*
X70000Y75800D01*
X69600Y75400D01*
X69200D01*
X69600Y75000D01*
X69200Y74600D01*
X69600D01*
X70000Y74200D01*
X0Y9200D02*
X400Y9600D01*
X800D01*
X400Y10000D01*
X800Y10400D01*
X400D01*
X0Y10800D01*
X-400Y10400D01*
X-800D01*
X-400Y10000D01*
X-800Y9600D01*
X-400D01*
X0Y9200D01*
X35000Y79200D02*
X35400Y79600D01*
X35800D01*
X35400Y80000D01*
X35800Y80400D01*
X35400D01*
X35000Y80800D01*
X34600Y80400D01*
X34200D01*
X34600Y80000D01*
X34200Y79600D01*
X34600D01*
X35000Y79200D01*
X0Y29200D02*
X400Y29600D01*
X800D01*
X400Y30000D01*
X800Y30400D01*
X400D01*
X0Y30800D01*
X-400Y30400D01*
X-800D01*
X-400Y30000D01*
X-800Y29600D01*
X-400D01*
X0Y29200D01*
Y19200D02*
X400Y19600D01*
X800D01*
X400Y20000D01*
X800Y20400D01*
X400D01*
X0Y20800D01*
X-400Y20400D01*
X-800D01*
X-400Y20000D01*
X-800Y19600D01*
X-400D01*
X0Y19200D01*
X36214Y61411D02*
Y61011D01*
X37014D01*
Y61411D01*
X37414D01*
Y62211D01*
X37014D01*
Y62611D01*
X36214D01*
Y62211D01*
X35814D01*
Y61411D01*
X36214D01*
X38183D02*
Y61011D01*
X38983D01*
Y61411D01*
X39383D01*
Y62211D01*
X38983D01*
Y62611D01*
X38183D01*
Y62211D01*
X37783D01*
Y61411D01*
X38183D01*
X59443Y9443D02*
Y9042D01*
X60242D01*
Y9443D01*
X60642D01*
Y10243D01*
X60242D01*
Y10643D01*
X59443D01*
Y10243D01*
X59043D01*
Y9443D01*
X59443D01*
X58655Y11411D02*
Y11011D01*
X59455D01*
Y11411D01*
X59855D01*
Y12211D01*
X59455D01*
Y12611D01*
X58655D01*
Y12211D01*
X58255D01*
Y11411D01*
X58655D01*
X30309Y61771D02*
Y61371D01*
X31109D01*
Y61771D01*
X31509D01*
Y62571D01*
X31109D01*
Y62971D01*
X30309D01*
Y62571D01*
X29909D01*
Y61771D01*
X30309D01*
X31883Y59246D02*
Y58846D01*
X32684D01*
Y59246D01*
X33084D01*
Y60046D01*
X32684D01*
Y60446D01*
X31883D01*
Y60046D01*
X31484D01*
Y59246D01*
X31883D01*
X13910Y25448D02*
Y25048D01*
X14710D01*
Y25448D01*
X15110D01*
Y26248D01*
X14710D01*
Y26648D01*
X13910D01*
Y26248D01*
X13510D01*
Y25448D01*
X13910D01*
X47631Y29128D02*
Y28728D01*
X48432D01*
Y29128D01*
X48831D01*
Y29928D01*
X48432D01*
Y30328D01*
X47631D01*
Y29928D01*
X47232D01*
Y29128D01*
X47631D01*
X37395D02*
Y28728D01*
X38195D01*
Y29128D01*
X38595D01*
Y29928D01*
X38195D01*
Y30328D01*
X37395D01*
Y29928D01*
X36995D01*
Y29128D01*
X37395D01*
X60544Y43415D02*
Y43015D01*
X61344D01*
Y43415D01*
X61744D01*
Y44215D01*
X61344D01*
Y44615D01*
X60544D01*
Y44215D01*
X60144D01*
Y43415D01*
X60544D01*
X48813Y40151D02*
Y39751D01*
X49613D01*
Y40151D01*
X50013D01*
Y40951D01*
X49613D01*
Y41351D01*
X48813D01*
Y40951D01*
X48413D01*
Y40151D01*
X48813D01*
X56194Y51307D02*
Y50907D01*
X56994D01*
Y51307D01*
X57394D01*
Y52108D01*
X56994D01*
Y52508D01*
X56194D01*
Y52108D01*
X55794D01*
Y51307D01*
X56194D01*
X44482Y67710D02*
Y67310D01*
X45282D01*
Y67710D01*
X45682D01*
Y68510D01*
X45282D01*
Y68910D01*
X44482D01*
Y68510D01*
X44082D01*
Y67710D01*
X44482D01*
X48160Y68103D02*
Y67703D01*
X48960D01*
Y68103D01*
X49360D01*
Y68903D01*
X48960D01*
Y69304D01*
X48160D01*
Y68903D01*
X47760D01*
Y68103D01*
X48160D01*
X44088Y33065D02*
Y32665D01*
X44888D01*
Y33065D01*
X45288D01*
Y33865D01*
X44888D01*
Y34265D01*
X44088D01*
Y33865D01*
X43688D01*
Y33065D01*
X44088D01*
X40939D02*
Y32665D01*
X41739D01*
Y33065D01*
X42139D01*
Y33865D01*
X41739D01*
Y34265D01*
X40939D01*
Y33865D01*
X40539D01*
Y33065D01*
X40939D01*
X27159Y61771D02*
Y61371D01*
X27959D01*
Y61771D01*
X28359D01*
Y62571D01*
X27959D01*
Y62971D01*
X27159D01*
Y62571D01*
X26759D01*
Y61771D01*
X27159D01*
X28734Y60230D02*
Y59830D01*
X29534D01*
Y60230D01*
X29934D01*
Y61030D01*
X29534D01*
Y61430D01*
X28734D01*
Y61030D01*
X28334D01*
Y60230D01*
X28734D01*
X22862Y59049D02*
Y58649D01*
X23662D01*
Y59049D01*
X24062D01*
Y59849D01*
X23662D01*
Y60249D01*
X22862D01*
Y59849D01*
X22462D01*
Y59049D01*
X22862D01*
Y52750D02*
Y52350D01*
X23662D01*
Y52750D01*
X24062D01*
Y53550D01*
X23662D01*
Y53950D01*
X22862D01*
Y53550D01*
X22462D01*
Y52750D01*
X22862D01*
X24403Y54324D02*
Y53924D01*
X25203D01*
Y54324D01*
X25603D01*
Y55124D01*
X25203D01*
Y55524D01*
X24403D01*
Y55124D01*
X24003D01*
Y54324D01*
X24403D01*
X45871Y38183D02*
Y37783D01*
X46671D01*
Y38183D01*
X47071D01*
Y38983D01*
X46671D01*
Y39383D01*
X45871D01*
Y38983D01*
X45471D01*
Y38183D01*
X45871D01*
X40425Y42680D02*
Y42280D01*
X41225D01*
Y42680D01*
X41625D01*
Y43480D01*
X41225D01*
Y43880D01*
X40425D01*
Y43480D01*
X40025D01*
Y42680D01*
X40425D01*
X39364Y40939D02*
Y40539D01*
X40164D01*
Y40939D01*
X40564D01*
Y41739D01*
X40164D01*
Y42139D01*
X39364D01*
Y41739D01*
X38964D01*
Y40939D01*
X39364D01*
X42184Y40953D02*
Y40554D01*
X42983D01*
Y40953D01*
X43383D01*
Y41754D01*
X42983D01*
Y42153D01*
X42184D01*
Y41754D01*
X41783D01*
Y40953D01*
X42184D01*
X44054Y44876D02*
Y44476D01*
X44854D01*
Y44876D01*
X45254D01*
Y45676D01*
X44854D01*
Y46076D01*
X44054D01*
Y45676D01*
X43654D01*
Y44876D01*
X44054D01*
X42513Y46450D02*
Y46050D01*
X43313D01*
Y46450D01*
X43713D01*
Y47250D01*
X43313D01*
Y47650D01*
X42513D01*
Y47250D01*
X42113D01*
Y46450D01*
X42513D01*
X44054Y41726D02*
Y41326D01*
X44854D01*
Y41726D01*
X45254D01*
Y42526D01*
X44854D01*
Y42926D01*
X44054D01*
Y42526D01*
X43654D01*
Y41726D01*
X44054D01*
X42513Y43301D02*
Y42901D01*
X43313D01*
Y43301D01*
X43713D01*
Y44101D01*
X43313D01*
Y44501D01*
X42513D01*
Y44101D01*
X42113D01*
Y43301D01*
X42513D01*
X11288Y59201D02*
Y58801D01*
X12088D01*
Y59201D01*
X12488D01*
Y60001D01*
X12088D01*
Y60401D01*
X11288D01*
Y60001D01*
X10888D01*
Y59201D01*
X11288D01*
X24403Y48025D02*
Y47625D01*
X25203D01*
Y48025D01*
X25603D01*
Y48825D01*
X25203D01*
Y49225D01*
X24403D01*
Y48825D01*
X24003D01*
Y48025D01*
X24403D01*
X24403Y44876D02*
Y44476D01*
X25203D01*
Y44876D01*
X25603D01*
Y45676D01*
X25203D01*
Y46076D01*
X24403D01*
Y45676D01*
X24003D01*
Y44876D01*
X24403D01*
X22862Y46450D02*
Y46050D01*
X23662D01*
Y46450D01*
X24062D01*
Y47250D01*
X23662D01*
Y47650D01*
X22862D01*
Y47250D01*
X22462D01*
Y46450D01*
X22862D01*
Y43301D02*
Y42901D01*
X23662D01*
Y43301D01*
X24062D01*
Y44101D01*
X23662D01*
Y44501D01*
X22862D01*
Y44101D01*
X22462D01*
Y43301D01*
X22862D01*
X55702Y32100D02*
Y31700D01*
X56502D01*
Y32100D01*
X56902D01*
Y32900D01*
X56502D01*
Y33300D01*
X55702D01*
Y32900D01*
X55302D01*
Y32100D01*
X55702D01*
X51765D02*
Y31700D01*
X52565D01*
Y32100D01*
X52965D01*
Y32900D01*
X52565D01*
Y33300D01*
X51765D01*
Y32900D01*
X51365D01*
Y32100D01*
X51765D01*
X57671Y43478D02*
Y43078D01*
X58471D01*
Y43478D01*
X58871D01*
Y44278D01*
X58471D01*
Y44678D01*
X57671D01*
Y44278D01*
X57271D01*
Y43478D01*
X57671D01*
X53734Y43478D02*
Y43078D01*
X54534D01*
Y43478D01*
X54934D01*
Y44278D01*
X54534D01*
Y44678D01*
X53734D01*
Y44278D01*
X53334D01*
Y43478D01*
X53734D01*
X37553Y25023D02*
Y24623D01*
X38353D01*
Y25023D01*
X38753D01*
Y25823D01*
X38353D01*
Y26223D01*
X37553D01*
Y25823D01*
X37153D01*
Y25023D01*
X37553D01*
X37395Y33065D02*
Y32665D01*
X38195D01*
Y33065D01*
X38595D01*
Y33865D01*
X38195D01*
Y34265D01*
X37395D01*
Y33865D01*
X36995D01*
Y33065D01*
X37395D01*
X55506Y56687D02*
Y56287D01*
X56305D01*
Y56687D01*
X56705D01*
Y57487D01*
X56305D01*
Y57887D01*
X55506D01*
Y57487D01*
X55106D01*
Y56687D01*
X55506D01*
X15348Y67317D02*
Y66917D01*
X16148D01*
Y67317D01*
X16548D01*
Y68116D01*
X16148D01*
Y68516D01*
X15348D01*
Y68116D01*
X14948D01*
Y67317D01*
X15348D01*
X27159Y76372D02*
Y75972D01*
X27959D01*
Y76372D01*
X28359D01*
Y77172D01*
X27959D01*
Y77572D01*
X27159D01*
Y77172D01*
X26759D01*
Y76372D01*
X27159D01*
X18104Y24895D02*
Y24495D01*
X18904D01*
Y24895D01*
X19304D01*
Y25695D01*
X18904D01*
Y26095D01*
X18104D01*
Y25695D01*
X17704D01*
Y24895D01*
X18104D01*
X15962Y8777D02*
Y8377D01*
X16762D01*
Y8777D01*
X17162D01*
Y9577D01*
X16762D01*
Y9977D01*
X15962D01*
Y9577D01*
X15562D01*
Y8777D01*
X15962D01*
X11238D02*
Y8377D01*
X12038D01*
Y8777D01*
X12438D01*
Y9577D01*
X12038D01*
Y9977D01*
X11238D01*
Y9577D01*
X10838D01*
Y8777D01*
X11238D01*
X13600Y11297D02*
Y10897D01*
X14400D01*
Y11297D01*
X14800D01*
Y12097D01*
X14400D01*
Y12497D01*
X13600D01*
Y12097D01*
X13200D01*
Y11297D01*
X13600D01*
Y13462D02*
Y13062D01*
X14400D01*
Y13462D01*
X14800D01*
Y14262D01*
X14400D01*
Y14662D01*
X13600D01*
Y14262D01*
X13200D01*
Y13462D01*
X13600D01*
X44639Y24039D02*
Y23639D01*
X45439D01*
Y24039D01*
X45839D01*
Y24839D01*
X45439D01*
Y25239D01*
X44639D01*
Y24839D01*
X44239D01*
Y24039D01*
X44639D01*
X43458Y22071D02*
Y21670D01*
X44258D01*
Y22071D01*
X44658D01*
Y22871D01*
X44258D01*
Y23270D01*
X43458D01*
Y22871D01*
X43058D01*
Y22071D01*
X43458D01*
X24561Y24039D02*
Y23639D01*
X25361D01*
Y24039D01*
X25761D01*
Y24839D01*
X25361D01*
Y25239D01*
X24561D01*
Y24839D01*
X24161D01*
Y24039D01*
X24561D01*
X25742Y22071D02*
Y21670D01*
X26542D01*
Y22071D01*
X26942D01*
Y22871D01*
X26542D01*
Y23270D01*
X25742D01*
Y22871D01*
X25342D01*
Y22071D01*
X25742D01*
X56600Y9450D02*
Y9050D01*
X57400D01*
Y9450D01*
X57800D01*
Y10250D01*
X57400D01*
Y10650D01*
X56600D01*
Y10250D01*
X56200D01*
Y9450D01*
X56600D01*
X65569Y3600D02*
Y3200D01*
X66369D01*
Y3600D01*
X66768D01*
Y4400D01*
X66369D01*
Y4800D01*
X65569D01*
Y4400D01*
X65168D01*
Y3600D01*
X65569D01*
X14639Y2996D02*
Y2596D01*
X15439D01*
Y2996D01*
X15839D01*
Y3796D01*
X15439D01*
Y4196D01*
X14639D01*
Y3796D01*
X14239D01*
Y2996D01*
X14639D01*
X54561D02*
Y2596D01*
X55361D01*
Y2996D01*
X55761D01*
Y3796D01*
X55361D01*
Y4196D01*
X54561D01*
Y3796D01*
X54161D01*
Y2996D01*
X54561D01*
X54561Y19452D02*
Y19052D01*
X55361D01*
Y19452D01*
X55761D01*
Y20252D01*
X55361D01*
Y20652D01*
X54561D01*
Y20252D01*
X54161D01*
Y19452D01*
X54561D01*
X14639D02*
Y19052D01*
X15439D01*
Y19452D01*
X15839D01*
Y20252D01*
X15439D01*
Y20652D01*
X14639D01*
Y20252D01*
X14239D01*
Y19452D01*
X14639D01*
X47887Y24039D02*
Y23639D01*
X48687D01*
Y24039D01*
X49087D01*
Y24839D01*
X48687D01*
Y25239D01*
X47887D01*
Y24839D01*
X47487D01*
Y24039D01*
X47887D01*
X46706Y22071D02*
Y21670D01*
X47506D01*
Y22071D01*
X47906D01*
Y22871D01*
X47506D01*
Y23270D01*
X46706D01*
Y22871D01*
X46306D01*
Y22071D01*
X46706D01*
X22494Y22071D02*
Y21670D01*
X23294D01*
Y22071D01*
X23694D01*
Y22871D01*
X23294D01*
Y23270D01*
X22494D01*
Y22871D01*
X22094D01*
Y22071D01*
X22494D01*
X21313Y24039D02*
Y23639D01*
X22113D01*
Y24039D01*
X22513D01*
Y24839D01*
X22113D01*
Y25239D01*
X21313D01*
Y24839D01*
X20913D01*
Y24039D01*
X21313D01*
X17612Y40151D02*
Y39751D01*
X18412D01*
Y40151D01*
X18812D01*
Y40951D01*
X18412D01*
Y41351D01*
X17612D01*
Y40951D01*
X17212D01*
Y40151D01*
X17612D01*
X15348Y52750D02*
Y52350D01*
X16148D01*
Y52750D01*
X16548D01*
Y53550D01*
X16148D01*
Y53950D01*
X15348D01*
Y53550D01*
X14948D01*
Y52750D01*
X15348D01*
X32080Y40545D02*
Y40145D01*
X32880D01*
Y40545D01*
X33280D01*
Y41345D01*
X32880D01*
Y41745D01*
X32080D01*
Y41345D01*
X31680D01*
Y40545D01*
X32080D01*
X30112D02*
Y40145D01*
X30912D01*
Y40545D01*
X31312D01*
Y41345D01*
X30912D01*
Y41745D01*
X30112D01*
Y41345D01*
X29712D01*
Y40545D01*
X30112D01*
X33616Y25023D02*
Y24623D01*
X34416D01*
Y25023D01*
X34816D01*
Y25823D01*
X34416D01*
Y26223D01*
X33616D01*
Y25823D01*
X33216D01*
Y25023D01*
X33616D01*
X33852Y33065D02*
Y32665D01*
X34652D01*
Y33065D01*
X35052D01*
Y33865D01*
X34652D01*
Y34265D01*
X33852D01*
Y33865D01*
X33452D01*
Y33065D01*
X33852D01*
X37986Y46844D02*
Y46444D01*
X38786D01*
Y46844D01*
X39186D01*
Y47644D01*
X38786D01*
Y48044D01*
X37986D01*
Y47644D01*
X37586D01*
Y46844D01*
X37986D01*
X29128D02*
Y46444D01*
X29928D01*
Y46844D01*
X30328D01*
Y47644D01*
X29928D01*
Y48044D01*
X29128D01*
Y47644D01*
X28728D01*
Y46844D01*
X29128D01*
X28340Y55702D02*
Y55302D01*
X29140D01*
Y55702D01*
X29540D01*
Y56502D01*
X29140D01*
Y56902D01*
X28340D01*
Y56502D01*
X27940D01*
Y55702D01*
X28340D01*
X37986D02*
Y55302D01*
X38786D01*
Y55702D01*
X39186D01*
Y56502D01*
X38786D01*
Y56902D01*
X37986D01*
Y56502D01*
X37586D01*
Y55702D01*
X37986D01*
X24009Y40151D02*
Y39751D01*
X24809D01*
Y40151D01*
X25209D01*
Y40951D01*
X24809D01*
Y41351D01*
X24009D01*
Y40951D01*
X23609D01*
Y40151D01*
X24009D01*
X27159Y40545D02*
Y40145D01*
X27959D01*
Y40545D01*
X28359D01*
Y41345D01*
X27959D01*
Y41745D01*
X27159D01*
Y41345D01*
X26759D01*
Y40545D01*
X27159D01*
X51569Y56293D02*
Y55893D01*
X52368D01*
Y56293D01*
X52768D01*
Y57093D01*
X52368D01*
Y57493D01*
X51569D01*
Y57093D01*
X51169D01*
Y56293D01*
X51569D01*
X51569Y48419D02*
Y48019D01*
X52368D01*
Y48419D01*
X52768D01*
Y49219D01*
X52368D01*
Y49619D01*
X51569D01*
Y49219D01*
X51169D01*
Y48419D01*
X51569D01*
X55506D02*
Y48019D01*
X56305D01*
Y48419D01*
X56705D01*
Y49219D01*
X56305D01*
Y49619D01*
X55506D01*
Y49219D01*
X55106D01*
Y48419D01*
X55506D01*
X47631Y33065D02*
Y32665D01*
X48432D01*
Y33065D01*
X48831D01*
Y33865D01*
X48432D01*
Y34265D01*
X47631D01*
Y33865D01*
X47232D01*
Y33065D01*
X47631D01*
X56687Y24895D02*
Y24495D01*
X57487D01*
Y24895D01*
X57887D01*
Y25695D01*
X57487D01*
Y26095D01*
X56687D01*
Y25695D01*
X56287D01*
Y24895D01*
X56687D01*
Y28439D02*
Y28039D01*
X57487D01*
Y28439D01*
X57887D01*
Y29239D01*
X57487D01*
Y29639D01*
X56687D01*
Y29239D01*
X56287D01*
Y28439D01*
X56687D01*
X15348Y55899D02*
Y55499D01*
X16148D01*
Y55899D01*
X16548D01*
Y56699D01*
X16148D01*
Y57099D01*
X15348D01*
Y56699D01*
X14948D01*
Y55899D01*
X15348D01*
X38970Y68891D02*
Y68491D01*
X39770D01*
Y68891D01*
X40170D01*
Y69691D01*
X39770D01*
Y70091D01*
X38970D01*
Y69691D01*
X38570D01*
Y68891D01*
X38970D01*
X35033Y68399D02*
Y67999D01*
X35833D01*
Y68399D01*
X36233D01*
Y69199D01*
X35833D01*
Y69599D01*
X35033D01*
Y69199D01*
X34633D01*
Y68399D01*
X35033D01*
X31883D02*
Y67999D01*
X32684D01*
Y68399D01*
X33084D01*
Y69199D01*
X32684D01*
Y69599D01*
X31883D01*
Y69199D01*
X31484D01*
Y68399D01*
X31883D01*
X27946D02*
Y67999D01*
X28747D01*
Y68399D01*
X29147D01*
Y69199D01*
X28747D01*
Y69599D01*
X27946D01*
Y69199D01*
X27547D01*
Y68399D01*
X27946D01*
X27159Y72435D02*
Y72035D01*
X27959D01*
Y72435D01*
X28359D01*
Y73235D01*
X27959D01*
Y73635D01*
X27159D01*
Y73235D01*
X26759D01*
Y72435D01*
X27159D01*
X12198Y76372D02*
Y75972D01*
X12998D01*
Y76372D01*
X13398D01*
Y77172D01*
X12998D01*
Y77572D01*
X12198D01*
Y77172D01*
X11798D01*
Y76372D01*
X12198D01*
X15348Y62986D02*
Y62586D01*
X16148D01*
Y62986D01*
X16548D01*
Y63786D01*
X16148D01*
Y64186D01*
X15348D01*
Y63786D01*
X14948D01*
Y62986D01*
X15348D01*
X11411D02*
Y62586D01*
X12211D01*
Y62986D01*
X12611D01*
Y63786D01*
X12211D01*
Y64186D01*
X11411D01*
Y63786D01*
X11011D01*
Y62986D01*
X11411D01*
Y55899D02*
Y55499D01*
X12211D01*
Y55899D01*
X12611D01*
Y56699D01*
X12211D01*
Y57099D01*
X11411D01*
Y56699D01*
X11011D01*
Y55899D01*
X11411D01*
Y52750D02*
Y52350D01*
X12211D01*
Y52750D01*
X12611D01*
Y53550D01*
X12211D01*
Y53950D01*
X11411D01*
Y53550D01*
X11011D01*
Y52750D01*
X11411D01*
X33852Y29128D02*
Y28728D01*
X34652D01*
Y29128D01*
X35052D01*
Y29928D01*
X34652D01*
Y30328D01*
X33852D01*
Y29928D01*
X33452D01*
Y29128D01*
X33852D01*
X52750Y24895D02*
Y24495D01*
X53550D01*
Y24895D01*
X53950D01*
Y25695D01*
X53550D01*
Y26095D01*
X52750D01*
Y25695D01*
X52350D01*
Y24895D01*
X52750D01*
Y28439D02*
Y28039D01*
X53550D01*
Y28439D01*
X53950D01*
Y29239D01*
X53550D01*
Y29639D01*
X52750D01*
Y29239D01*
X52350D01*
Y28439D01*
X52750D01*
X17907Y26864D02*
Y26464D01*
X18707D01*
Y26864D01*
X19107D01*
Y27664D01*
X18707D01*
Y28064D01*
X17907D01*
Y27664D01*
X17507D01*
Y26864D01*
X17907D01*
X10820Y26372D02*
Y25972D01*
X11620D01*
Y26372D01*
X12021D01*
Y27172D01*
X11620D01*
Y27572D01*
X10820D01*
Y27172D01*
X10420D01*
Y26372D01*
X10820D01*
Y30309D02*
Y29909D01*
X11620D01*
Y30309D01*
X12021D01*
Y31109D01*
X11620D01*
Y31509D01*
X10820D01*
Y31109D01*
X10420D01*
Y30309D01*
X10820D01*
X15348Y33852D02*
Y33452D01*
X16148D01*
Y33852D01*
X16548D01*
Y34652D01*
X16148D01*
Y35052D01*
X15348D01*
Y34652D01*
X14948D01*
Y33852D01*
X15348D01*
X11411D02*
Y33452D01*
X12211D01*
Y33852D01*
X12611D01*
Y34652D01*
X12211D01*
Y35052D01*
X11411D01*
Y34652D01*
X11011D01*
Y33852D01*
X11411D01*
X11411Y37002D02*
Y36602D01*
X12211D01*
Y37002D01*
X12611D01*
Y37802D01*
X12211D01*
Y38202D01*
X11411D01*
Y37802D01*
X11011D01*
Y37002D01*
X11411D01*
Y49600D02*
Y49200D01*
X12211D01*
Y49600D01*
X12611D01*
Y50400D01*
X12211D01*
Y50800D01*
X11411D01*
Y50400D01*
X11011D01*
Y49600D01*
X11411D01*
Y46450D02*
Y46050D01*
X12211D01*
Y46450D01*
X12611D01*
Y47250D01*
X12211D01*
Y47650D01*
X11411D01*
Y47250D01*
X11011D01*
Y46450D01*
X11411D01*
Y43301D02*
Y42901D01*
X12211D01*
Y43301D01*
X12611D01*
Y44101D01*
X12211D01*
Y44501D01*
X11411D01*
Y44101D01*
X11011D01*
Y43301D01*
X11411D01*
X15348D02*
Y42901D01*
X16148D01*
Y43301D01*
X16548D01*
Y44101D01*
X16148D01*
Y44501D01*
X15348D01*
Y44101D01*
X14948D01*
Y43301D01*
X15348D01*
X11411Y40151D02*
Y39751D01*
X12211D01*
Y40151D01*
X12611D01*
Y40951D01*
X12211D01*
Y41351D01*
X11411D01*
Y40951D01*
X11011D01*
Y40151D01*
X11411D01*
X55998Y63872D02*
Y63472D01*
X56798D01*
Y63872D01*
X57198D01*
Y64672D01*
X56798D01*
Y65072D01*
X55998D01*
Y64672D01*
X55598D01*
Y63872D01*
X55998D01*
D80*
X65800Y10000D02*
G03*
X65800Y10000I-800J0D01*
G01*
Y20000D02*
G03*
X65800Y20000I-800J0D01*
G01*
Y30000D02*
G03*
X65800Y30000I-800J0D01*
G01*
Y40000D02*
G03*
X65800Y40000I-800J0D01*
G01*
Y50000D02*
G03*
X65800Y50000I-800J0D01*
G01*
Y70000D02*
G03*
X65800Y70000I-800J0D01*
G01*
Y60000D02*
G03*
X65800Y60000I-800J0D01*
G01*
X5800Y10000D02*
G03*
X5800Y10000I-800J0D01*
G01*
Y20000D02*
G03*
X5800Y20000I-800J0D01*
G01*
Y30000D02*
G03*
X5800Y30000I-800J0D01*
G01*
Y40000D02*
G03*
X5800Y40000I-800J0D01*
G01*
Y50000D02*
G03*
X5800Y50000I-800J0D01*
G01*
Y70000D02*
G03*
X5800Y70000I-800J0D01*
G01*
Y60000D02*
G03*
X5800Y60000I-800J0D01*
G01*
X35800Y75000D02*
G03*
X35800Y75000I-800J0D01*
G01*
M02*
