G04*
G04 #@! TF.GenerationSoftware,Altium Limited,Altium Designer,24.6.1 (21)*
G04*
G04 Layer_Color=128*
%FSLAX25Y25*%
%MOIN*%
G70*
G04*
G04 #@! TF.SameCoordinates,E89A06A7-0658-4A87-8E90-D679E4E66743*
G04*
G04*
G04 #@! TF.FilePolarity,Positive*
G04*
G01*
G75*
%ADD11C,0.00394*%
%ADD79C,0.00200*%
D11*
X65000Y-0D02*
G03*
X70000Y5000I0J5000D01*
G01*
X70000Y75000D02*
G03*
X65000Y80000I-5000J0D01*
G01*
X5000Y80000D02*
G03*
X0Y75000I0J-5000D01*
G01*
X-0Y5000D02*
G03*
X5000Y0I5000J0D01*
G01*
X0Y5000D02*
Y75000D01*
X5000Y80000D02*
X65000D01*
X70000Y5000D02*
Y75000D01*
X5000Y0D02*
X65000D01*
D79*
X22343Y17764D02*
X24902D01*
X23622Y16484D02*
Y19043D01*
X45098Y17764D02*
X47657D01*
X46378Y16484D02*
Y19043D01*
X52665Y76000D02*
X55028D01*
X53847Y74819D02*
Y77181D01*
X45972Y76000D02*
X48335D01*
X47153Y74819D02*
Y77181D01*
X63228Y10000D02*
X66772D01*
X65000Y8228D02*
Y11772D01*
X63228Y20000D02*
X66772D01*
X65000Y18228D02*
Y21772D01*
X63228Y30000D02*
X66772D01*
X65000Y28228D02*
Y31772D01*
X63228Y40000D02*
X66772D01*
X65000Y38228D02*
Y41772D01*
X63228Y50000D02*
X66772D01*
X65000Y48228D02*
Y51772D01*
X63228Y70000D02*
X66772D01*
X65000Y68228D02*
Y71772D01*
X63228Y60000D02*
X66772D01*
X65000Y58228D02*
Y61772D01*
X3228Y10000D02*
X6772D01*
X5000Y8228D02*
Y11772D01*
X3228Y20000D02*
X6772D01*
X5000Y18228D02*
Y21772D01*
X3228Y30000D02*
X6772D01*
X5000Y28228D02*
Y31772D01*
X3228Y40000D02*
X6772D01*
X5000Y38228D02*
Y41772D01*
X3228Y50000D02*
X6772D01*
X5000Y48228D02*
Y51772D01*
X3228Y70000D02*
X6772D01*
X5000Y68228D02*
Y71772D01*
X3228Y60000D02*
X6772D01*
X5000Y58228D02*
Y61772D01*
X68819Y35000D02*
X71181D01*
X70000Y33819D02*
Y36181D01*
X-1181Y75000D02*
X1181D01*
X0Y73819D02*
Y76181D01*
X-1181Y70000D02*
X1181D01*
X0Y68819D02*
Y71181D01*
X-1181Y55000D02*
X1181D01*
X0Y53819D02*
Y56181D01*
X-1181Y60000D02*
X1181D01*
X0Y58819D02*
Y61181D01*
X-1181Y50000D02*
X1181D01*
X0Y48819D02*
Y51181D01*
X-1181Y40000D02*
X1181D01*
X0Y38819D02*
Y41181D01*
X-1181Y45000D02*
X1181D01*
X0Y43819D02*
Y46181D01*
X-1181Y65000D02*
X1181D01*
X0Y63819D02*
Y66181D01*
X68819Y40000D02*
X71181D01*
X70000Y38819D02*
Y41181D01*
X68819Y30000D02*
X71181D01*
X70000Y28819D02*
Y31181D01*
X68819Y70000D02*
X71181D01*
X70000Y68819D02*
Y71181D01*
X68819Y20000D02*
X71181D01*
X70000Y18819D02*
Y21181D01*
X68819Y10000D02*
X71181D01*
X70000Y8819D02*
Y11181D01*
X68819Y45000D02*
X71181D01*
X70000Y43819D02*
Y46181D01*
X68819Y55000D02*
X71181D01*
X70000Y53819D02*
Y56181D01*
X68819Y65000D02*
X71181D01*
X70000Y63819D02*
Y66181D01*
X68819Y60000D02*
X71181D01*
X70000Y58819D02*
Y61181D01*
X68819Y50000D02*
X71181D01*
X70000Y48819D02*
Y51181D01*
X68819Y25000D02*
X71181D01*
X70000Y23819D02*
Y26181D01*
X68819Y15000D02*
X71181D01*
X70000Y13819D02*
Y16181D01*
X68819Y75000D02*
X71181D01*
X70000Y73819D02*
Y76181D01*
X-1181Y10000D02*
X1181D01*
X0Y8819D02*
Y11181D01*
X33819Y80000D02*
X36181D01*
X35000Y78819D02*
Y81181D01*
X33228Y75000D02*
X36772D01*
X35000Y73228D02*
Y76772D01*
X-1181Y30000D02*
X1181D01*
X0Y28819D02*
Y31181D01*
X-1181Y20000D02*
X1181D01*
X0Y18819D02*
Y21181D01*
X36220Y61811D02*
X37008D01*
X36614Y61417D02*
Y62205D01*
X38189Y61811D02*
X38976D01*
X38583Y61417D02*
Y62205D01*
X59449Y9843D02*
X60236D01*
X59842Y9449D02*
Y10236D01*
X58661Y11811D02*
X59449D01*
X59055Y11417D02*
Y12205D01*
X30315Y62171D02*
X31102D01*
X30709Y61777D02*
Y62565D01*
X31890Y59646D02*
X32677D01*
X32283Y59252D02*
Y60039D01*
X13917Y25848D02*
X14704D01*
X14310Y25454D02*
Y26241D01*
X47638Y29528D02*
X48425D01*
X48031Y29134D02*
Y29921D01*
X37402Y29528D02*
X38189D01*
X37795Y29134D02*
Y29921D01*
X60550Y43815D02*
X61338D01*
X60944Y43421D02*
Y44208D01*
X48819Y40551D02*
X49606D01*
X49213Y40157D02*
Y40945D01*
X56200Y51708D02*
X56988D01*
X56594Y51314D02*
Y52101D01*
X44488Y68110D02*
X45276D01*
X44882Y67716D02*
Y68504D01*
X48166Y68503D02*
X48954D01*
X48560Y68110D02*
Y68897D01*
X44094Y33465D02*
X44882D01*
X44488Y33071D02*
Y33858D01*
X40945Y33465D02*
X41732D01*
X41339Y33071D02*
Y33858D01*
X27165Y62171D02*
X27953D01*
X27559Y61777D02*
Y62565D01*
X28740Y60630D02*
X29528D01*
X29134Y60236D02*
Y61024D01*
X22868Y59449D02*
X23656D01*
X23262Y59055D02*
Y59842D01*
X22868Y53150D02*
X23656D01*
X23262Y52756D02*
Y53543D01*
X24409Y54724D02*
X25197D01*
X24803Y54331D02*
Y55118D01*
X45878Y38583D02*
X46665D01*
X46271Y38189D02*
Y38976D01*
X40431Y43080D02*
X41219D01*
X40825Y42687D02*
Y43474D01*
X39370Y41339D02*
X40157D01*
X39764Y40945D02*
Y41732D01*
X42190Y41353D02*
X42977D01*
X42584Y40960D02*
Y41747D01*
X44061Y45276D02*
X44848D01*
X44454Y44882D02*
Y45669D01*
X42520Y46850D02*
X43307D01*
X42913Y46457D02*
Y47244D01*
X44061Y42126D02*
X44848D01*
X44454Y41732D02*
Y42520D01*
X42520Y43701D02*
X43307D01*
X42913Y43307D02*
Y44094D01*
X11295Y59601D02*
X12082D01*
X11688Y59208D02*
Y59995D01*
X24409Y48425D02*
X25197D01*
X24803Y48031D02*
Y48819D01*
X24409Y45276D02*
X25197D01*
X24803Y44882D02*
Y45669D01*
X22868Y46850D02*
X23656D01*
X23262Y46457D02*
Y47244D01*
X22868Y43701D02*
X23656D01*
X23262Y43307D02*
Y44094D01*
X55709Y32500D02*
X56496D01*
X56102Y32106D02*
Y32894D01*
X51772Y32500D02*
X52559D01*
X52165Y32106D02*
Y32894D01*
X57677Y43878D02*
X58465D01*
X58071Y43484D02*
Y44272D01*
X53740Y43878D02*
X54528D01*
X54134Y43484D02*
Y44272D01*
X37559Y25423D02*
X38346D01*
X37953Y25030D02*
Y25817D01*
X37402Y33465D02*
X38189D01*
X37795Y33071D02*
Y33858D01*
X55512Y57087D02*
X56299D01*
X55905Y56693D02*
Y57480D01*
X15354Y67716D02*
X16142D01*
X15748Y67323D02*
Y68110D01*
X27165Y76772D02*
X27953D01*
X27559Y76378D02*
Y77165D01*
X18110Y25295D02*
X18898D01*
X18504Y24902D02*
Y25689D01*
X15969Y9177D02*
X16756D01*
X16362Y8783D02*
Y9571D01*
X11244Y9177D02*
X12032D01*
X11638Y8783D02*
Y9571D01*
X13606Y11697D02*
X14394D01*
X14000Y11303D02*
Y12090D01*
X13606Y13862D02*
X14394D01*
X14000Y13468D02*
Y14256D01*
X44646Y24439D02*
X45433D01*
X45039Y24045D02*
Y24833D01*
X43465Y22470D02*
X44252D01*
X43858Y22077D02*
Y22864D01*
X24567Y24439D02*
X25354D01*
X24961Y24045D02*
Y24833D01*
X25748Y22470D02*
X26535D01*
X26142Y22077D02*
Y22864D01*
X56606Y9850D02*
X57394D01*
X57000Y9457D02*
Y10244D01*
X65575Y4000D02*
X66362D01*
X65969Y3606D02*
Y4394D01*
X14646Y3396D02*
X15433D01*
X15039Y3002D02*
Y3789D01*
X54567Y3396D02*
X55354D01*
X54961Y3002D02*
Y3789D01*
X54567Y19852D02*
X55354D01*
X54961Y19459D02*
Y20246D01*
X14646Y19852D02*
X15433D01*
X15039Y19459D02*
Y20246D01*
X47894Y24439D02*
X48681D01*
X48287Y24045D02*
Y24833D01*
X46713Y22470D02*
X47500D01*
X47106Y22077D02*
Y22864D01*
X22500Y22470D02*
X23287D01*
X22894Y22077D02*
Y22864D01*
X21319Y24439D02*
X22106D01*
X21713Y24045D02*
Y24833D01*
X17618Y40551D02*
X18406D01*
X18012Y40157D02*
Y40945D01*
X15354Y53150D02*
X16142D01*
X15748Y52756D02*
Y53543D01*
X32087Y40945D02*
X32874D01*
X32480Y40551D02*
Y41339D01*
X30118Y40945D02*
X30906D01*
X30512Y40551D02*
Y41339D01*
X33622Y25423D02*
X34409D01*
X34016Y25030D02*
Y25817D01*
X33858Y33465D02*
X34646D01*
X34252Y33071D02*
Y33858D01*
X37992Y47244D02*
X38780D01*
X38386Y46850D02*
Y47638D01*
X29134Y47244D02*
X29921D01*
X29528Y46850D02*
Y47638D01*
X28346Y56102D02*
X29134D01*
X28740Y55709D02*
Y56496D01*
X37992Y56102D02*
X38780D01*
X38386Y55709D02*
Y56496D01*
X24016Y40551D02*
X24803D01*
X24409Y40158D02*
Y40945D01*
X27165Y40945D02*
X27953D01*
X27559Y40551D02*
Y41339D01*
X51575Y56693D02*
X52362D01*
X51968Y56299D02*
Y57087D01*
X51575Y48819D02*
X52362D01*
X51968Y48425D02*
Y49213D01*
X55512Y48819D02*
X56299D01*
X55905Y48425D02*
Y49213D01*
X47638Y33465D02*
X48425D01*
X48031Y33071D02*
Y33858D01*
X56693Y25295D02*
X57480D01*
X57087Y24902D02*
Y25689D01*
X56693Y28839D02*
X57480D01*
X57087Y28445D02*
Y29232D01*
X15354Y56299D02*
X16142D01*
X15748Y55905D02*
Y56693D01*
X38976Y69291D02*
X39764D01*
X39370Y68898D02*
Y69685D01*
X35039Y68799D02*
X35827D01*
X35433Y68405D02*
Y69193D01*
X31890Y68799D02*
X32677D01*
X32283Y68405D02*
Y69193D01*
X27953Y68799D02*
X28740D01*
X28346Y68405D02*
Y69193D01*
X27165Y72835D02*
X27953D01*
X27559Y72441D02*
Y73228D01*
X12205Y76772D02*
X12992D01*
X12598Y76378D02*
Y77165D01*
X15354Y63386D02*
X16142D01*
X15748Y62992D02*
Y63779D01*
X11417Y63386D02*
X12205D01*
X11811Y62992D02*
Y63779D01*
X11417Y56299D02*
X12205D01*
X11811Y55905D02*
Y56693D01*
X11417Y53150D02*
X12205D01*
X11811Y52756D02*
Y53543D01*
X33858Y29528D02*
X34646D01*
X34252Y29134D02*
Y29921D01*
X52756Y25295D02*
X53543D01*
X53150Y24902D02*
Y25689D01*
X52756Y28839D02*
X53543D01*
X53150Y28445D02*
Y29232D01*
X17913Y27264D02*
X18701D01*
X18307Y26870D02*
Y27658D01*
X10827Y26772D02*
X11614D01*
X11220Y26378D02*
Y27165D01*
X10827Y30709D02*
X11614D01*
X11220Y30315D02*
Y31102D01*
X15354Y34252D02*
X16142D01*
X15748Y33858D02*
Y34646D01*
X11417Y34252D02*
X12205D01*
X11811Y33858D02*
Y34646D01*
X11417Y37402D02*
X12205D01*
X11811Y37008D02*
Y37795D01*
X11417Y50000D02*
X12205D01*
X11811Y49606D02*
Y50394D01*
X11417Y46850D02*
X12205D01*
X11811Y46457D02*
Y47244D01*
X11417Y43701D02*
X12205D01*
X11811Y43307D02*
Y44094D01*
X15354Y43701D02*
X16142D01*
X15748Y43307D02*
Y44094D01*
X11417Y40551D02*
X12205D01*
X11811Y40157D02*
Y40945D01*
X56004Y64272D02*
X56791D01*
X56398Y63878D02*
Y64665D01*
M02*
