M48
;Layer_Color=9474304
;FILE_FORMAT=2:5
INCH,LZ
;TYPE=PLATED
T01F00S00C0.00787
T02F00S00C0.02362
T03F00S00C0.03543
;TYPE=NON_PLATED
T04F00S00C0.02362
T05F00S00C0.02559
%
T01
X0015039Y0003396
X0016362Y0009177
X0011638
X0014Y0011697
Y0013862
X0015039Y0019852
X001431Y0025848
X001122Y0026772
Y0030709
X0011811Y0034252
X0011811Y0037402
Y0040551
Y0043701
Y004685
Y005
Y005315
Y0056299
X0011688Y0059601
X0015748Y0056299
Y005315
X0023262
X0024803Y0054724
X002874Y0056102
X0029134Y006063
X0032283Y0059646
X0023262Y0059449
X0024803Y0048425
X0023262Y004685
X0024803Y0045276
X0023262Y0043701
X0024409Y0040551
X0027559Y0040945
X0030512Y0040945
X003248
X0039764Y0041339
X0040825Y004308
X0042913Y0043701
X0042584Y0041353
X0044454Y0042126
Y0045276
X0042913Y004685
X0038386Y0047244
X0029528
X0015748Y0043701
X0018012Y0040551
X0015748Y0034252
X0018307Y0027264
X0018504Y0025295
X0021713Y0024439
X0022894Y002247
X0026142Y002247
X0024961Y0024439
X0034016Y0025423
X0037953
X0037795Y0029528
X0034252
Y0033465
X0037795
X0041339Y0033465
X0044488
X0048031Y0033465
Y0029528
X0048287Y0024439
X0047106Y002247
X0043858Y002247
X0045039Y0024439
X005315Y0025295
Y0028839
X0057087
Y0025295
X0054961Y0019852
X0057Y000985
X0059842Y0009843
X0059055Y0011811
X0054961Y0003396
X0065969Y0004
X0056102Y00325
X0052165
X0049213Y0040551
X0046271Y0038583
X0054134Y0043878
X0058071Y0043878
X0060944Y0043815
X0055905Y0048819
X0056594Y0051708
X0055905Y0057087
X0051968Y0056693
X0051968Y0048819
X0038386Y0056102
X0038583Y0061811
X0036614
X0030709Y0062171
X0027559
X0028346Y0068799
X0032283
X0035433
X003937Y0069291
X0044882Y006811
X004856Y0068503
X0056398Y0064272
X0027559Y0072835
Y0076772
X0012598
X0015748Y0067716
Y0063386
X0011811
T02
X0Y001
Y002
Y003
Y004
Y0045
Y005
Y0055
Y006
X007
Y0055
Y005
Y0045
Y004
Y0035
Y003
Y0025
Y002
Y0015
Y001
Y0065
Y007
Y0075
X0035Y008
X0Y0075
Y007
Y0065
T03
X0005Y001
Y002
Y003
Y004
Y005
Y006
X0065
Y005
Y004
Y003
Y002
Y001
Y007
X0035Y0075
X0005Y007
T04
X0047153Y0076
X0053847
T05
X0023622Y0017764
X0046378
M30
